<svg width="28" height="28" viewBox="0 0 28 28" fill="none" xmlns="http://www.w3.org/2000/svg">
<circle cx="14" cy="14" r="14" fill="#51A7FC"/>
<g clip-path="url(#clip0_3255_10272)">
<path d="M19.625 17.3333C19.625 17.6096 19.5172 17.8746 19.3254 18.0699C19.1337 18.2653 18.8735 18.375 18.6023 18.375H9.39773C9.12648 18.375 8.86635 18.2653 8.67455 18.0699C8.48275 17.8746 8.375 17.6096 8.375 17.3333V11.6042C8.375 11.3279 8.48275 11.0629 8.67455 10.8676C8.86635 10.6722 9.12648 10.5625 9.39773 10.5625H11.4432L12.4659 9H15.5341L16.5568 10.5625H18.6023C18.8735 10.5625 19.1337 10.6722 19.3254 10.8676C19.5172 11.0629 19.625 11.3279 19.625 11.6042V17.3333Z" stroke="white" stroke-width="1.5" stroke-linecap="round" stroke-linejoin="round"/>
<path d="M14 15.875C15.0355 15.875 15.875 15.0355 15.875 14C15.875 12.9645 15.0355 12.125 14 12.125C12.9645 12.125 12.125 12.9645 12.125 14C12.125 15.0355 12.9645 15.875 14 15.875Z" stroke="white" stroke-width="1.5" stroke-linecap="round" stroke-linejoin="round"/>
</g>
<defs>
<clipPath id="clip0_3255_10272">
<rect width="12.5" height="12.5" fill="white" transform="translate(7.75 7.75)"/>
</clipPath>
</defs>
</svg>
