<svg width="32" height="32" viewBox="0 0 32 32" fill="none" xmlns="http://www.w3.org/2000/svg">
<path fill-rule="evenodd" clip-rule="evenodd" d="M15.9998 0.417969C7.39359 0.417969 0.416504 7.39505 0.416504 16.0013C0.416504 24.6076 7.39359 31.5846 15.9998 31.5846C24.6061 31.5846 31.5832 24.6076 31.5832 16.0013C31.5832 7.39505 24.6061 0.417969 15.9998 0.417969ZM17.4165 21.668C17.4165 22.0437 17.2672 22.404 17.0016 22.6697C16.7359 22.9354 16.3756 23.0846 15.9998 23.0846C15.6241 23.0846 15.2638 22.9354 14.9981 22.6697C14.7324 22.404 14.5832 22.0437 14.5832 21.668V17.418H10.3332C9.95745 17.418 9.59711 17.2687 9.33144 17.003C9.06576 16.7374 8.9165 16.377 8.9165 16.0013C8.9165 15.6256 9.06576 15.2652 9.33144 14.9996C9.59711 14.7339 9.95745 14.5846 10.3332 14.5846H14.5832V10.3346C14.5832 9.95891 14.7324 9.59858 14.9981 9.3329C15.2638 9.06722 15.6241 8.91797 15.9998 8.91797C16.3756 8.91797 16.7359 9.06722 17.0016 9.3329C17.2672 9.59858 17.4165 9.95891 17.4165 10.3346V14.5846H21.6665C22.0422 14.5846 22.4026 14.7339 22.6682 14.9996C22.9339 15.2652 23.0832 15.6256 23.0832 16.0013C23.0832 16.377 22.9339 16.7374 22.6682 17.003C22.4026 17.2687 22.0422 17.418 21.6665 17.418H17.4165V21.668Z" fill="#041524"/>
</svg>
