<svg width="18" height="18" viewBox="0 0 18 18" fill="none" xmlns="http://www.w3.org/2000/svg">
<path d="M8.95 8.64999C10.3 8.64999 11.35 7.54999 11.35 6.19999C11.35 4.84999 10.25 3.79999 8.9 3.79999C7.55 3.79999 6.5 4.89999 6.5 6.19999C6.5 7.54999 7.6 8.64999 8.95 8.64999ZM8.9 4.79999C8.95 4.79999 8.95 4.79999 8.9 4.79999C9.7 4.79999 10.35 5.44999 10.35 6.24999C10.35 7.04999 9.7 7.64999 8.9 7.64999C8.1 7.64999 7.5 6.99999 7.5 6.24999C7.5 5.44999 8.15 4.79999 8.9 4.79999Z" fill="#05233E"/>
<path d="M16.35 8.35002C15.4 7.50002 14.15 7.05002 12.85 7.10002H12.45C12.35 7.50002 12.2 7.85001 12 8.15001C12.3 8.10001 12.55 8.10002 12.85 8.10002C13.8 8.05002 14.75 8.35001 15.5 8.90001V12.5H16.5V8.50002L16.35 8.35002Z" fill="#05233E"/>
<path d="M11.7 3.90002C11.95 3.30002 12.65 3.00002 13.3 3.25002C13.9 3.50002 14.2 4.20002 13.95 4.85002C13.75 5.30002 13.3 5.60002 12.85 5.60002C12.75 5.60002 12.6 5.60002 12.5 5.55002C12.55 5.80002 12.55 6.05002 12.55 6.25002V6.55002C12.65 6.55002 12.75 6.60002 12.85 6.60002C14.1 6.60002 15.1 5.60002 15.1 4.40002C15.1 3.15002 14.1 2.15002 12.9 2.15002C12.1 2.15002 11.4 2.55002 11 3.25002C11.25 3.40002 11.5 3.60002 11.7 3.90002Z" fill="#05233E"/>
<path d="M6 8.20001C5.8 7.90001 5.65 7.55001 5.55 7.15001H5.15C3.85 7.10001 2.6 7.55001 1.65 8.35001L1.5 8.50001V12.5H2.5V8.90001C3.3 8.35001 4.2 8.05001 5.15 8.10001C5.45 8.10001 5.75 8.15001 6 8.20001Z" fill="#05233E"/>
<path d="M5.14988 6.55002C5.24988 6.55002 5.34988 6.55002 5.44988 6.50002V6.20002C5.44988 5.95002 5.44988 5.70002 5.49988 5.50002C5.39988 5.55002 5.24988 5.55002 5.14988 5.55002C4.49988 5.55002 3.94988 5.00002 3.94988 4.35002C3.94988 3.70002 4.49988 3.15002 5.14988 3.15002C5.64988 3.15002 6.09988 3.45002 6.29988 3.90002C6.49988 3.65002 6.79988 3.40002 7.04988 3.20002C6.39988 2.15002 5.04988 1.80002 3.99988 2.45002C2.94988 3.10002 2.59988 4.45002 3.24988 5.50002C3.64988 6.15002 4.34988 6.55002 5.14988 6.55002Z" fill="#05233E"/>
<path d="M13.05 11.35L12.95 11.2C11.95 10.1 10.55 9.45 9.05 9.5C7.55 9.45 6.1 10.1 5.1 11.2L5 11.35V15.15C5 15.6 5.35 16 5.85 16H12.25C12.7 16 13.1 15.6 13.1 15.15V11.35H13.05ZM12.05 15H6V11.7C6.8 10.9 7.9 10.5 9.05 10.5C10.15 10.45 11.25 10.9 12.05 11.7V15Z" fill="#05233E"/>
</svg>
