<svg width="26" height="26" viewBox="0 0 26 26" fill="none" xmlns="http://www.w3.org/2000/svg">
<path d="M17.7484 8.96289H16.5575C16.2986 8.96289 16.0523 9.0873 15.8999 9.30059L11.9085 14.8357L10.1007 12.3271C9.94837 12.1164 9.70462 11.9895 9.4431 11.9895H8.25227C8.08724 11.9895 7.99075 12.1773 8.08724 12.3119L11.2509 16.6994C11.3256 16.8037 11.4242 16.8887 11.5383 16.9474C11.6525 17.006 11.7789 17.0366 11.9073 17.0366C12.0356 17.0366 12.1621 17.006 12.2762 16.9474C12.3903 16.8887 12.4889 16.8037 12.5636 16.6994L17.9109 9.28535C18.0099 9.15078 17.9134 8.96289 17.7484 8.96289Z" fill="#0D901A"/>
<path d="M13 1.625C6.71836 1.625 1.625 6.71836 1.625 13C1.625 19.2816 6.71836 24.375 13 24.375C19.2816 24.375 24.375 19.2816 24.375 13C24.375 6.71836 19.2816 1.625 13 1.625ZM13 22.4453C7.78477 22.4453 3.55469 18.2152 3.55469 13C3.55469 7.78477 7.78477 3.55469 13 3.55469C18.2152 3.55469 22.4453 7.78477 22.4453 13C22.4453 18.2152 18.2152 22.4453 13 22.4453Z" fill="#0D901A"/>
</svg>
