<svg width="6" height="10" viewBox="0 0 6 10" fill="none" xmlns="http://www.w3.org/2000/svg">
<path fill-rule="evenodd" clip-rule="evenodd" d="M5.70721 0.29357C5.89468 0.481097 6 0.735405 6 1.00057C6 1.26573 5.89468 1.52004 5.70721 1.70757L2.41421 5.00057L5.70721 8.29357C5.88937 8.48217 5.99017 8.73477 5.98789 8.99697C5.98561 9.25917 5.88044 9.50998 5.69503 9.69539C5.50962 9.8808 5.25881 9.98597 4.99661 9.98824C4.73442 9.99052 4.48182 9.88973 4.29321 9.70757L0.293214 5.70757C0.105743 5.52004 0.000427246 5.26573 0.000427246 5.00057C0.000427246 4.7354 0.105743 4.4811 0.293214 4.29357L4.29321 0.29357C4.48074 0.106098 4.73505 0.000782967 5.00021 0.000782967C5.26538 0.000782967 5.51969 0.106098 5.70721 0.29357Z" fill="#05233E"/>
</svg>
