<svg width="15" height="15" viewBox="0 0 15 15" fill="none" xmlns="http://www.w3.org/2000/svg">
<path d="M8.99951 6C8.99951 6.53043 8.7888 7.03914 8.41373 7.41421C8.03865 7.78929 7.52994 8 6.99951 8C6.46908 8 5.96037 7.78929 5.5853 7.41421C5.21023 7.03914 4.99951 6.53043 4.99951 6C4.99951 5.46957 5.21023 4.96086 5.5853 4.58579C5.96037 4.21071 6.46908 4 6.99951 4C7.52994 4 8.03865 4.21071 8.41373 4.58579C8.7888 4.96086 8.99951 5.46957 8.99951 6Z" fill="#05233E"/>
<path d="M12 3.76172L12 10.5C12 11.0523 11.5523 11.5 11 11.5H9.48533H8H4.87192C3.78447 11.5 3.47848 10.0092 4.478 9.58086L6.63093 8.65817C6.86778 8.55666 7.13469 8.55051 7.37597 8.64099L9.83646 9.56367C10.8789 9.95458 10.5986 11.5 9.48533 11.5H11C11.5523 11.5 12 11.0523 12 10.5L12 3.76172L11.7373 3.5H10C9.44772 3.5 9 3.05228 9 2.5V0.772461L11.7373 3.5L12 3.76172Z" fill="#05233E"/>
<path d="M4.5 4V1V1C4.5 0.723858 4.72386 0.5 5 0.5H8.72656L9 0.772461M8 11.5H11C11.5523 11.5 12 11.0523 12 10.5V10.5L12 3.76172L11.7373 3.5M8 11.5H4.87192C3.78447 11.5 3.47848 10.0092 4.47801 9.58085L6.63093 8.65817C6.86779 8.55666 7.13469 8.55051 7.37597 8.64099L9.83646 9.56367C10.8789 9.95458 10.5986 11.5 9.48533 11.5H8ZM9 0.772461V2.5C9 3.05228 9.44772 3.5 10 3.5H11.7373M9 0.772461L11.7373 3.5" stroke="#05233E" stroke-width="0.8"/>
<path d="M1.66667 3.5V12.7812C1.66667 13.0548 1.77202 13.3171 1.95956 13.5105C2.1471 13.7038 2.40145 13.8125 2.66667 13.8125H9V14.5H2.66667C2.22464 14.5 1.80072 14.3189 1.48816 13.9966C1.17559 13.6743 1 13.2371 1 12.7812V3.5H1.66667Z" fill="#05233E"/>
</svg>
