<svg width="22" height="23" viewBox="0 0 22 23" fill="none" xmlns="http://www.w3.org/2000/svg">
<path d="M0 5C0 2.23858 2.23858 0 5 0H17C19.7614 0 22 2.23858 22 5V18C22 20.7614 19.7614 23 17 23H5C2.23858 23 0 20.7614 0 18V5Z" fill="#063966"/>
<path d="M14.2118 8.21185L14.2084 14.325C14.208 15.0739 13.9101 15.7923 13.3803 16.3222C12.8504 16.852 12.132 17.1499 11.3831 17.1503C10.6342 17.1507 9.91614 16.8536 9.38688 16.3244C8.85761 15.7951 8.56051 15.077 8.56093 14.3281L8.56433 8.21499C8.56461 7.71572 8.76321 7.23679 9.11645 6.88355C9.46968 6.53032 9.94862 6.33172 10.4479 6.33144C10.9472 6.33116 11.4259 6.52923 11.7787 6.88207C12.1316 7.23491 12.3296 7.71362 12.3293 8.21289L12.3226 14.3294C12.3225 14.579 12.2232 14.8185 12.0466 14.9951C11.8699 15.1717 11.6305 15.271 11.3808 15.2711C11.1312 15.2713 10.8918 15.1723 10.7154 14.9958C10.539 14.8194 10.44 14.5801 10.4401 14.3304L10.4466 8.68623" stroke="white" stroke-linecap="round" stroke-linejoin="round"/>
</svg>
