<svg width="16" height="16" viewBox="0 0 16 16" fill="none" xmlns="http://www.w3.org/2000/svg">
<g clip-path="url(#clip0_9833_66280)">
<path d="M7.99663 -0.000176501C6.93706 -0.0151652 5.88508 0.180584 4.90183 0.575695C3.91857 0.970805 3.02364 1.5574 2.26906 2.30138C1.51448 3.04537 0.915286 3.9319 0.506307 4.90947C0.097328 5.88704 -0.113281 6.93615 -0.113281 7.99582C-0.113281 9.0555 0.097328 10.1046 0.506307 11.0822C0.915286 12.0597 1.51448 12.9463 2.26906 13.6903C3.02364 14.4342 3.91857 15.0208 4.90183 15.416C5.88508 15.8111 6.93706 16.0068 7.99663 15.9918C10.0977 15.9621 12.1027 15.1066 13.578 13.6103C15.0533 12.114 15.8803 10.0971 15.8803 7.99582C15.8803 5.89453 15.0533 3.87767 13.578 2.38137C12.1027 0.885056 10.0977 0.0295455 7.99663 -0.000176501ZM1.59983 7.99662C1.58641 7.14818 1.74193 6.30554 2.05734 5.51778C2.37274 4.73002 2.84173 4.01289 3.43698 3.40815C4.03224 2.8034 4.74186 2.32314 5.52453 1.99531C6.3072 1.66749 7.14728 1.49866 7.99583 1.49866C8.84438 1.49866 9.68446 1.66749 10.4671 1.99531C11.2498 2.32314 11.9594 2.8034 12.5547 3.40815C13.1499 4.01289 13.6189 4.73002 13.9343 5.51778C14.2497 6.30554 14.4053 7.14818 14.3918 7.99662C14.3653 9.67543 13.6797 11.2765 12.4831 12.4543C11.2865 13.6321 9.67485 14.2923 7.99583 14.2923C6.31682 14.2923 4.70511 13.6321 3.50852 12.4543C2.31192 11.2765 1.62638 9.67543 1.59983 7.99662Z" fill="#05233E"/>
<path d="M11.3662 5.43327C11.4407 5.50759 11.4998 5.59587 11.5402 5.69306C11.5805 5.79025 11.6013 5.89444 11.6013 5.99967C11.6013 6.1049 11.5805 6.20909 11.5402 6.30629C11.4998 6.40348 11.4407 6.49176 11.3662 6.56607L7.76624 10.1661C7.69193 10.2406 7.60364 10.2997 7.50645 10.34C7.40926 10.3803 7.30507 10.4011 7.19984 10.4011C7.09461 10.4011 6.99042 10.3803 6.89322 10.34C6.79603 10.2997 6.70775 10.2406 6.63344 10.1661L5.03344 8.56607C4.88322 8.41585 4.79883 8.21211 4.79883 7.99967C4.79883 7.78723 4.88322 7.58349 5.03344 7.43327C5.18366 7.28305 5.3874 7.19866 5.59984 7.19866C5.81228 7.19866 6.01602 7.28305 6.16624 7.43327L7.19984 8.46847L10.2334 5.43327C10.3078 5.35877 10.396 5.29966 10.4932 5.25933C10.5904 5.219 10.6946 5.19824 10.7998 5.19824C10.9051 5.19824 11.0093 5.219 11.1065 5.25933C11.2036 5.29966 11.2919 5.35877 11.3662 5.43327Z" fill="#05233E"/>
</g>
<defs>
<clipPath id="clip0_9833_66280">
<rect width="16" height="16" fill="white"/>
</clipPath>
</defs>
</svg>
