<svg width="22" height="22" viewBox="0 0 22 22" fill="none" xmlns="http://www.w3.org/2000/svg">
<path d="M14.8584 15.7669L16.6299 13.9954C16.867 13.7582 17.1685 13.5958 17.4971 13.5283C17.8256 13.4609 18.1667 13.4913 18.4781 13.6158L20.6356 14.4794C20.9535 14.6066 21.2261 14.8262 21.4181 15.1098C21.6101 15.3934 21.7127 15.7281 21.7127 16.0706V19.994C21.7133 20.2272 21.6662 20.458 21.5745 20.6724C21.4827 20.8868 21.3482 21.0802 21.1791 21.2408C21.01 21.4013 20.8099 21.5257 20.5911 21.6063C20.3722 21.6869 20.1393 21.7219 19.9064 21.7093C4.78377 20.7682 1.72951 7.95961 1.16247 3.05476C1.13501 2.81497 1.15862 2.57209 1.23176 2.34208C1.3049 2.11207 1.42591 1.90015 1.58682 1.72027C1.74773 1.54038 1.94491 1.39659 2.16538 1.29837C2.38584 1.20015 2.62461 1.14972 2.86596 1.1504H6.71977C7.06227 1.15039 7.39691 1.253 7.68053 1.44499C7.96415 1.63698 8.18373 1.90955 8.31096 2.22753L9.17378 4.38497C9.2983 4.69639 9.3287 5.0375 9.26122 5.36602C9.19374 5.69455 9.03135 5.99606 8.79417 6.23319L7.02267 8.00469C7.02267 8.00469 8.0049 14.9104 14.8584 15.7669Z" fill="#1665D8"/>
<path d="M18.082 5.89565L20.9212 3.0565L19.8061 1.94141L16.9669 4.78056L14.1278 1.94141L13.0127 3.0565L15.8518 5.89565L13.0127 8.73481L14.1278 9.8499L16.9669 7.01075L19.8061 9.8499L20.9212 8.73481L18.082 5.89565Z" fill="#1665D8"/>
</svg>
