<svg width="21" height="21" viewBox="0 0 21 21" fill="none" xmlns="http://www.w3.org/2000/svg">
<rect y="0.980469" width="21" height="19.04" rx="2" fill="#05233E"/>
<path d="M14.7546 5H13.3115C12.9976 5 12.6992 5.16951 12.5145 5.46009L7.67746 13.0015L5.48662 9.58363C5.302 9.29651 5.00661 9.12354 4.68967 9.12354H3.24655C3.04655 9.12354 2.92962 9.37953 3.04655 9.56288L6.88051 15.5406C6.97109 15.6827 7.09049 15.7986 7.22881 15.8784C7.36714 15.9583 7.52041 16 7.67592 16C7.83144 16 7.98471 15.9583 8.12304 15.8784C8.26136 15.7986 8.38076 15.6827 8.47133 15.5406L14.9515 5.43934C15.0715 5.25599 14.9546 5 14.7546 5Z" fill="white"/>
<path d="M18.7546 5H17.3115C16.9976 5 16.6992 5.16951 16.5145 5.46009L11.6775 13.0015L9.48662 9.58363C9.302 9.29651 9.00661 9.12354 8.68967 9.12354H7.24655C7.04655 9.12354 6.92962 9.37953 7.04655 9.56288L10.8805 15.5406C10.9711 15.6827 11.0905 15.7986 11.2288 15.8784C11.3671 15.9583 11.5204 16 11.6759 16C11.8314 16 11.9847 15.9583 12.123 15.8784C12.2614 15.7986 12.3808 15.6827 12.4713 15.5406L18.9515 5.43934C19.0715 5.25599 18.9546 5 18.7546 5Z" fill="white"/>
</svg>
