<svg width="26" height="26" viewBox="0 0 26 26" fill="none" xmlns="http://www.w3.org/2000/svg">
<rect x="0.25" y="0.25" width="25.5" height="25.5" rx="12.75" fill="#F4F4F5" stroke="#05233E" stroke-width="0.5"/>
<path d="M19.4088 7.22875H16.4688V6.10875C16.4688 6.03175 16.4058 5.96875 16.3288 5.96875H15.3488C15.2718 5.96875 15.2087 6.03175 15.2087 6.10875V7.22875H10.7288V6.10875C10.7288 6.03175 10.6658 5.96875 10.5887 5.96875H9.60875C9.53175 5.96875 9.46875 6.03175 9.46875 6.10875V7.22875H6.52875C6.219 7.22875 5.96875 7.479 5.96875 7.78875V19.4088C5.96875 19.7185 6.219 19.9688 6.52875 19.9688H19.4088C19.7185 19.9688 19.9688 19.7185 19.9688 19.4088V7.78875C19.9688 7.479 19.7185 7.22875 19.4088 7.22875ZM18.7088 18.7088H7.22875V12.0588H18.7088V18.7088ZM7.22875 10.8688V8.48875H9.46875V9.32875C9.46875 9.40575 9.53175 9.46875 9.60875 9.46875H10.5887C10.6658 9.46875 10.7288 9.40575 10.7288 9.32875V8.48875H15.2087V9.32875C15.2087 9.40575 15.2718 9.46875 15.3488 9.46875H16.3288C16.4058 9.46875 16.4688 9.40575 16.4688 9.32875V8.48875H18.7088V10.8688H7.22875Z" fill="#041524"/>
</svg>
