<svg width="18" height="18" viewBox="0 0 18 18" fill="none" xmlns="http://www.w3.org/2000/svg">
<path d="M14.2288 0.643496L8.9998 5.87278C7.2569 4.13043 5.51343 2.3864 3.77024 0.643496C1.75368 -1.37307 -1.37213 1.75387 0.642742 3.771C2.38621 5.51278 4.13024 7.25709 5.87174 9C4.12945 10.7437 2.38644 12.4867 0.642742 14.229C-1.37213 16.245 1.75396 19.3711 3.77024 17.3565C5.51315 15.613 7.25662 13.8693 8.99952 12.1269L14.2285 17.3565C16.2451 19.3725 19.3717 16.2453 17.356 14.229C15.6126 12.4855 13.8696 10.7426 12.1256 8.99943C13.8694 7.25596 15.6123 5.5125 17.356 3.76931C19.372 1.75387 16.2454 -1.37307 14.2285 0.644621" fill="#EC1C24"/>
</svg>
