<svg width="12" height="16" viewBox="0 0 12 16" fill="none" xmlns="http://www.w3.org/2000/svg">
<path d="M10.2209 9.35387C11.1209 9.35387 11.8499 10.0829 11.8499 10.9829V11.603H11.8454C11.8148 12.305 11.6222 13.1843 10.8347 13.9025C9.9743 14.6882 8.4884 15.2012 5.9999 15.2012C3.5105 15.2012 2.0255 14.6882 1.1651 13.9025C0.377602 13.1843 0.185002 12.3041 0.154402 11.603H0.149902V10.982C0.149902 10.0829 0.878902 9.35387 1.7789 9.35387H10.2209ZM2.8499 1.70117C2.49186 1.70117 2.14848 1.8434 1.89531 2.09658C1.64213 2.34975 1.4999 2.69313 1.4999 3.05117V6.65117C1.4999 7.00922 1.64213 7.35259 1.89531 7.60577C2.14848 7.85894 2.49186 8.00117 2.8499 8.00117H9.1499C9.50794 8.00117 9.85132 7.85894 10.1045 7.60577C10.3577 7.35259 10.4999 7.00922 10.4999 6.65117V3.05117C10.4999 2.69313 10.3577 2.34975 10.1045 2.09658C9.85132 1.8434 9.50794 1.70117 9.1499 1.70117H6.4499V1.25117C6.45245 1.1914 6.44255 1.13175 6.42084 1.076C6.39913 1.02025 6.36607 0.969616 6.32376 0.927311C6.28146 0.885006 6.23083 0.851949 6.17508 0.830236C6.11933 0.808522 6.05968 0.798626 5.9999 0.801173C5.7515 0.801173 5.5499 1.00817 5.5499 1.25117V1.70117H2.8499ZM3.2999 4.85117C3.2999 4.61248 3.39472 4.38356 3.56351 4.21478C3.73229 4.04599 3.96121 3.95117 4.1999 3.95117C4.4386 3.95117 4.66752 4.04599 4.8363 4.21478C5.00508 4.38356 5.0999 4.61248 5.0999 4.85117C5.0999 5.08987 5.00508 5.31879 4.8363 5.48757C4.66752 5.65635 4.4386 5.75117 4.1999 5.75117C3.96121 5.75117 3.73229 5.65635 3.56351 5.48757C3.39472 5.31879 3.2999 5.08987 3.2999 4.85117ZM6.8999 4.85117C6.8999 4.61248 6.99472 4.38356 7.16351 4.21478C7.33229 4.04599 7.56121 3.95117 7.7999 3.95117C8.0386 3.95117 8.26752 4.04599 8.4363 4.21478C8.60508 4.38356 8.6999 4.61248 8.6999 4.85117C8.6999 5.08987 8.60508 5.31879 8.4363 5.48757C8.26752 5.65635 8.0386 5.75117 7.7999 5.75117C7.56121 5.75117 7.33229 5.65635 7.16351 5.48757C6.99472 5.31879 6.8999 5.08987 6.8999 4.85117Z" fill="#041524"/>
</svg>
