<svg width="7" height="5" viewBox="0 0 7 5" fill="none" xmlns="http://www.w3.org/2000/svg">
<path d="M6.1642 0.233088C6.20259 0.193919 6.24841 0.162802 6.29897 0.141559C6.34953 0.120317 6.40383 0.109375 6.45867 0.109375C6.51351 0.109375 6.56781 0.120317 6.61837 0.141559C6.66893 0.162802 6.71475 0.193919 6.75314 0.233088C6.91401 0.39565 6.91627 0.658338 6.75877 0.823713L3.4327 4.75559C3.39494 4.79706 3.34911 4.83038 3.29803 4.85353C3.24694 4.87668 3.19167 4.88916 3.13559 4.89022C3.07952 4.89127 3.02382 4.88087 2.9719 4.85966C2.91998 4.83844 2.87293 4.80686 2.83364 4.76684L0.809765 2.71596C0.731711 2.63636 0.687988 2.52932 0.687988 2.41784C0.687988 2.30635 0.731711 2.19931 0.809765 2.11971C0.848153 2.08054 0.89397 2.04943 0.944534 2.02818C0.995097 2.00694 1.04939 1.996 1.10423 1.996C1.15908 1.996 1.21337 2.00694 1.26393 2.02818C1.3145 2.04943 1.36031 2.08054 1.3987 2.11971L3.11545 3.85953L6.15295 0.245463C6.15645 0.241116 6.16021 0.236983 6.1642 0.233088Z" fill="white"/>
</svg>
