<svg width="12" height="12" viewBox="0 0 12 12" fill="none" xmlns="http://www.w3.org/2000/svg">
<path d="M3.84753 8.6414L10.1973 0.384839C10.3946 0.128279 10.6457 0 10.9507 0C11.2556 0 11.5067 0.128279 11.704 0.384839C11.9013 0.641399 12 0.967929 12 1.36443C12 1.76093 11.9013 2.08746 11.704 2.34402L4.6009 11.5802C4.38565 11.8601 4.13453 12 3.84753 12C3.56054 12 3.30942 11.8601 3.09417 11.5802L0.295964 7.94169C0.0986543 7.68513 0 7.3586 0 6.9621C0 6.5656 0.0986543 6.23907 0.295964 5.98251C0.493273 5.72595 0.744394 5.59767 1.04933 5.59767C1.35426 5.59767 1.60538 5.72595 1.80269 5.98251L3.84753 8.6414Z" fill="#041524"/>
</svg>
