<svg width="10" height="10" viewBox="0 0 10 10" fill="none" xmlns="http://www.w3.org/2000/svg">
<path d="M9.74837 0.962891H8.55755C8.29856 0.962891 8.05228 1.0873 7.89993 1.30059L3.90853 6.83574L2.10071 4.32715C1.94837 4.11641 1.70462 3.98945 1.4431 3.98945H0.252275C0.0872357 3.98945 -0.00924874 4.17734 0.0872357 4.31191L3.25091 8.69941C3.32565 8.80373 3.42417 8.88872 3.53831 8.94736C3.65246 9.006 3.77893 9.03658 3.90726 9.03658C4.03558 9.03658 4.16206 9.006 4.2762 8.94736C4.39034 8.88872 4.48887 8.80373 4.5636 8.69941L9.91087 1.28535C10.0099 1.15078 9.91341 0.962891 9.74837 0.962891Z" fill="#0D901A"/>
</svg>
