<svg width="12" height="12" viewBox="0 0 12 12" fill="none" xmlns="http://www.w3.org/2000/svg">
<path d="M5.99984 0.167969C2.7915 0.167969 0.166504 2.79297 0.166504 6.0013C0.166504 9.20963 2.7915 11.8346 5.99984 11.8346C9.20817 11.8346 11.8332 9.20963 11.8332 6.0013C11.8332 2.79297 9.20817 0.167969 5.99984 0.167969ZM8.07067 8.21797L5.69067 6.7538C5.51567 6.6488 5.41067 6.46213 5.41067 6.25797V3.52214C5.4165 3.28297 5.61484 3.08464 5.854 3.08464C6.09317 3.08464 6.2915 3.28297 6.2915 3.52214V6.11797L8.5315 7.46547C8.7415 7.5938 8.8115 7.86797 8.68317 8.07797C8.55484 8.28214 8.28067 8.3463 8.07067 8.21797Z" fill="#041524"/>
</svg>
