<svg width="12" height="12" viewBox="0 0 12 12" fill="none" xmlns="http://www.w3.org/2000/svg">
<path d="M6.32931 2.73242H5.67169C5.61153 2.73242 5.56232 2.78164 5.56232 2.8418V6.60567C5.56232 6.64121 5.57872 6.67403 5.60743 6.69453L7.86739 8.34473C7.91661 8.38027 7.98497 8.3707 8.02052 8.32149L8.41153 7.78828C8.44845 7.7377 8.43751 7.66934 8.38829 7.63516L6.43868 6.22559V2.8418C6.43868 2.78164 6.38946 2.73242 6.32931 2.73242ZM9.33439 3.76055L11.4781 4.28418C11.5465 4.30059 11.6135 4.24863 11.6135 4.17891L11.6244 1.9709C11.6244 1.8793 11.5192 1.82735 11.4481 1.88477L9.29337 3.56778C9.27709 3.58037 9.26469 3.59731 9.2576 3.61664C9.25051 3.63597 9.24903 3.65691 9.25331 3.67705C9.2576 3.69719 9.26748 3.71571 9.28182 3.73048C9.29616 3.74525 9.31438 3.75567 9.33439 3.76055ZM11.6272 7.87715L10.852 7.61055C10.8249 7.60128 10.7954 7.60296 10.7696 7.61523C10.7437 7.62749 10.7238 7.64937 10.7139 7.67617C10.6879 7.7459 10.6606 7.81426 10.6318 7.88262C10.3885 8.45821 10.0399 8.97637 9.59415 9.4207C9.1534 9.86283 8.63105 10.2152 8.05607 10.4584C7.46042 10.7102 6.82014 10.8395 6.17345 10.8385C5.51993 10.8385 4.88692 10.7113 4.29083 10.4584C3.71585 10.2152 3.1935 9.86283 2.75275 9.4207C2.30841 8.97637 1.95978 8.45821 1.71505 7.88262C1.4646 7.28664 1.33629 6.64646 1.33771 6C1.33771 5.34649 1.46485 4.71211 1.71778 4.11602C1.96114 3.54043 2.30978 3.02227 2.75548 2.57793C3.19623 2.13581 3.71858 1.7834 4.29357 1.54024C4.88693 1.28731 5.5213 1.16016 6.17482 1.16016C6.82833 1.16016 7.46134 1.28731 8.05743 1.54024C8.63242 1.7834 9.15476 2.13581 9.59552 2.57793C9.73497 2.71875 9.86622 2.86504 9.98653 3.01953L10.8041 2.37969C9.72814 1.0043 8.05333 0.119728 6.17208 0.121095C2.8963 0.122463 0.265831 2.78301 0.298644 6.06016C0.331456 9.27988 2.94962 11.8789 6.17482 11.8789C8.71095 11.8789 10.8711 10.2711 11.6942 8.01934C11.7147 7.96192 11.6846 7.89766 11.6272 7.87715Z" fill="white"/>
</svg>
