<svg width="16" height="16" viewBox="0 0 16 16" fill="none" xmlns="http://www.w3.org/2000/svg">
<path d="M4.13135 13.6973C5.23364 14.5433 6.59656 15.0024 7.99977 15.0004C9.45982 15.0004 10.8035 14.5136 11.8682 13.6973" stroke="#05233E" stroke-width="1.5"/>
<path d="M6.15787 3.0625C3.59771 3.82892 1.73682 6.15116 1.73682 8.897C1.73682 9.58804 1.85471 10.2521 2.07208 10.8714" stroke="#05233E" stroke-width="1.5"/>
<path d="M9.84204 3.0625C12.4022 3.82892 14.2631 6.15116 14.2631 8.897C14.2631 9.58804 14.1452 10.2521 13.9278 10.8714" stroke="#05233E" stroke-width="1.5"/>
<path d="M15.0001 12.4861C15.0001 12.9678 14.8056 13.4051 14.4888 13.7274C14.1929 14.0286 13.7986 14.2201 13.3737 14.2689C12.9487 14.3177 12.5196 14.2208 12.1599 13.9949C11.8003 13.769 11.5326 13.4281 11.4027 13.0308C11.2729 12.6336 11.2891 12.2046 11.4485 11.8177C11.6079 11.4308 11.9005 11.11 12.2762 10.9104C12.6519 10.7108 13.0872 10.6449 13.5073 10.724C13.9275 10.803 14.3063 11.0222 14.5787 11.3437C14.8511 11.6652 15.0001 12.0691 15.0001 12.4861V12.4861Z" stroke="#05233E" stroke-width="1.5" stroke-linecap="round" stroke-linejoin="round"/>
<path d="M4.68421 12.4861C4.68421 12.9678 4.48968 13.4051 4.17284 13.7274C3.87696 14.0286 3.48269 14.2201 3.05774 14.2689C2.63278 14.3177 2.20364 14.2208 1.84399 13.9949C1.48435 13.769 1.21664 13.4281 1.08682 13.0308C0.957003 12.6336 0.97318 12.2046 1.13257 11.8177C1.29197 11.4308 1.58463 11.11 1.96032 10.9104C2.33602 10.7108 2.77129 10.6449 3.19143 10.724C3.61157 10.803 3.99035 11.0222 4.26274 11.3437C4.53514 11.6652 4.68416 12.0691 4.68421 12.4861Z" stroke="#05233E" stroke-width="1.5" stroke-linecap="round" stroke-linejoin="round"/>
<path d="M9.84217 2.79468C9.84217 3.27643 9.64764 3.71367 9.3308 4.03603C9.03492 4.33722 8.64065 4.52866 8.2157 4.57746C7.79074 4.62627 7.3616 4.5294 7.00195 4.30349C6.64231 4.07758 6.3746 3.73673 6.24478 3.33944C6.11496 2.94216 6.13114 2.51323 6.29053 2.1263C6.44993 1.73937 6.74259 1.41858 7.11828 1.219C7.49397 1.01942 7.92925 0.953507 8.34939 1.03257C8.76953 1.11164 9.14831 1.33075 9.4207 1.65229C9.6931 1.97383 9.84212 2.37774 9.84217 2.79468V2.79468Z" stroke="#05233E" stroke-width="1.5" stroke-linecap="round" stroke-linejoin="round"/>
</svg>
