<svg width="16" height="16" viewBox="0 0 16 16" fill="none" xmlns="http://www.w3.org/2000/svg">
<g clip-path="url(#clip0)">
<path d="M4.882 7H3.21533C2.93933 7 2.71533 6.776 2.71533 6.5C2.71533 6.224 2.93933 6 3.21533 6H4.882C5.158 6 5.382 6.224 5.382 6.5C5.382 6.776 5.158 7 4.882 7Z" fill="#05233E"/>
<path d="M12.8821 7H7.88208C7.60608 7 7.38208 6.776 7.38208 6.5C7.38208 6.224 7.60608 6 7.88208 6H12.8821C13.1581 6 13.3821 6.224 13.3821 6.5C13.3821 6.776 13.1581 7 12.8821 7Z" fill="#05233E"/>
<path d="M4.882 9.66663H3.21533C2.93933 9.66663 2.71533 9.44263 2.71533 9.16663C2.71533 8.89063 2.93933 8.66663 3.21533 8.66663H4.882C5.158 8.66663 5.382 8.89063 5.382 9.16663C5.382 9.44263 5.158 9.66663 4.882 9.66663Z" fill="#05233E"/>
<path d="M12.8821 9.66663H7.88208C7.60608 9.66663 7.38208 9.44263 7.38208 9.16663C7.38208 8.89063 7.60608 8.66663 7.88208 8.66663H12.8821C13.1581 8.66663 13.3821 8.89063 13.3821 9.16663C13.3821 9.44263 13.1581 9.66663 12.8821 9.66663Z" fill="#05233E"/>
<path d="M4.882 12.3333H3.21533C2.93933 12.3333 2.71533 12.1093 2.71533 11.8333C2.71533 11.5573 2.93933 11.3333 3.21533 11.3333H4.882C5.158 11.3333 5.382 11.5573 5.382 11.8333C5.382 12.1093 5.158 12.3333 4.882 12.3333Z" fill="#05233E"/>
<path d="M12.8821 12.3333H7.88208C7.60608 12.3333 7.38208 12.1093 7.38208 11.8333C7.38208 11.5573 7.60608 11.3333 7.88208 11.3333H12.8821C13.1581 11.3333 13.3821 11.5573 13.3821 11.8333C13.3821 12.1093 13.1581 12.3333 12.8821 12.3333Z" fill="#05233E"/>
<path d="M14.1667 15.3334H1.83333C0.822 15.3334 0 14.5114 0 13.5V2.50002C0 1.48869 0.822 0.666687 1.83333 0.666687H14.1667C15.178 0.666687 16 1.48869 16 2.50002V13.5C16 14.5114 15.178 15.3334 14.1667 15.3334ZM1.83333 1.66669C1.374 1.66669 1 2.04069 1 2.50002V13.5C1 13.9594 1.374 14.3334 1.83333 14.3334H14.1667C14.626 14.3334 15 13.9594 15 13.5V2.50002C15 2.04069 14.626 1.66669 14.1667 1.66669H1.83333Z" fill="#05233E"/>
<path d="M15.5 4H0.5C0.224 4 0 3.776 0 3.5C0 3.224 0.224 3 0.5 3H15.5C15.776 3 16 3.224 16 3.5C16 3.776 15.776 4 15.5 4Z" fill="#05233E"/>
</g>
<defs>
<clipPath id="clip0">
<rect width="16" height="16" fill="white"/>
</clipPath>
</defs>
</svg>
