<svg width="10" height="13" viewBox="0 0 10 13" fill="none" xmlns="http://www.w3.org/2000/svg">
<path d="M7.3125 6.5C7.3125 7.14647 7.05569 7.76645 6.59857 8.22357C6.14145 8.68069 5.52147 8.9375 4.875 8.9375C4.22853 8.9375 3.60855 8.68069 3.15143 8.22357C2.69431 7.76645 2.4375 7.14647 2.4375 6.5C2.4375 5.85353 2.69431 5.23355 3.15143 4.77643C3.60855 4.31931 4.22853 4.0625 4.875 4.0625C5.52147 4.0625 6.14145 4.31931 6.59857 4.77643C7.05569 5.23355 7.3125 5.85353 7.3125 6.5Z" fill="#05233E"/>
<path d="M9.75 11.375V3.65625L6.09375 0H1.625C1.19402 0 0.780698 0.171205 0.475951 0.475952C0.171205 0.780698 0 1.19402 0 1.625V11.375C0 11.806 0.171205 12.2193 0.475951 12.524C0.780698 12.8288 1.19402 13 1.625 13H8.125C8.55598 13 8.9693 12.8288 9.27405 12.524C9.57879 12.2193 9.75 11.806 9.75 11.375ZM6.09375 2.4375C6.09375 2.76073 6.22215 3.07073 6.45071 3.29929C6.67927 3.52785 6.98927 3.65625 7.3125 3.65625H8.9375V11.1759C8.9375 11.1759 8.125 9.75 4.875 9.75C1.625 9.75 0.8125 11.1759 0.8125 11.1759V1.625C0.8125 1.40951 0.898102 1.20285 1.05048 1.05048C1.20285 0.898102 1.40951 0.8125 1.625 0.8125H6.09375V2.4375Z" fill="#05233E"/>
</svg>
