<svg width="10" height="13" viewBox="0 0 10 13" fill="none" xmlns="http://www.w3.org/2000/svg">
<path d="M0.46 12.6785C0.561103 12.7311 0.67462 12.7552 0.788364 12.7481C0.902108 12.7411 1.01179 12.7032 1.10562 12.6385L9.23063 7.01354C9.31365 6.95602 9.3815 6.87924 9.42836 6.78976C9.47522 6.70029 9.49969 6.60079 9.49969 6.49979C9.49969 6.39879 9.47522 6.29929 9.42836 6.20982C9.3815 6.12034 9.31365 6.04356 9.23063 5.98604L1.10562 0.361039C1.01186 0.29616 0.90213 0.258167 0.788321 0.251176C0.674512 0.244185 0.560958 0.268461 0.459956 0.321376C0.358954 0.374291 0.274352 0.453829 0.215311 0.551377C0.156269 0.648925 0.125038 0.760765 0.125 0.874789V12.1248C0.124981 12.2389 0.156189 12.3508 0.215242 12.4484C0.274295 12.546 0.358939 12.6256 0.46 12.6785Z" fill="#368EDA"/>
</svg>
