<svg width="26" height="25" viewBox="0 0 26 25" fill="none" xmlns="http://www.w3.org/2000/svg">
<rect x="1.5" y="0.5" width="24" height="24" rx="3.5" fill="#FAFAFA" stroke="#05233E"/>
<path d="M4.6044 21.4355C4.45988 21.4352 4.31699 21.4049 4.18482 21.3464C4.05266 21.288 3.9341 21.2026 3.83669 21.0959C3.73752 20.99 3.66185 20.8644 3.61464 20.7272C3.56742 20.5901 3.54974 20.4445 3.56273 20.3L3.81794 17.4938L15.6075 5.70837L19.2919 9.39171L7.50544 21.1761L4.69919 21.4313C4.66768 21.4342 4.63605 21.4356 4.6044 21.4355ZM20.0273 8.65525L16.344 4.97191L18.5534 2.76254C18.6501 2.66569 18.765 2.58886 18.8914 2.53643C19.0179 2.48401 19.1534 2.45703 19.2903 2.45703C19.4272 2.45703 19.5628 2.48401 19.6892 2.53643C19.8157 2.58886 19.9306 2.66569 20.0273 2.76254L22.2367 4.97191C22.3335 5.06866 22.4104 5.18354 22.4628 5.31C22.5152 5.43645 22.5422 5.572 22.5422 5.70889C22.5422 5.84578 22.5152 5.98133 22.4628 6.10779C22.4104 6.23425 22.3335 6.34913 22.2367 6.44587L20.0284 8.65421L20.0273 8.65525Z" fill="#041524"/>
</svg>
