<svg width="26" height="20" viewBox="0 0 26 20" fill="none" xmlns="http://www.w3.org/2000/svg">
<g clip-path="url(#clip0_7536:39258)">
<path d="M9.1 10C11.9722 10 14.3 7.76172 14.3 5C14.3 2.23828 11.9722 0 9.1 0C6.22781 0 3.9 2.23828 3.9 5C3.9 7.76172 6.22781 10 9.1 10ZM12.74 11.25H12.0616C11.1597 11.6484 10.1562 11.875 9.1 11.875C8.04375 11.875 7.04437 11.6484 6.13844 11.25H5.46C2.44562 11.25 0 13.6016 0 16.5V18.125C0 19.1602 0.873437 20 1.95 20H13.1178C13.0203 19.7344 12.9797 19.4531 13.0122 19.168L13.2884 16.7891L13.3372 16.3555L13.6581 16.0469L16.7984 13.0273C15.8031 11.9453 14.3609 11.25 12.74 11.25ZM14.5803 16.9258L14.3041 19.3086C14.2594 19.707 14.6088 20.043 15.0191 19.9961L17.4931 19.7305L23.0953 14.3438L20.1825 11.543L14.5803 16.9258ZM25.7156 10.5039L24.1759 9.02344C23.7981 8.66016 23.1806 8.66016 22.8028 9.02344L21.2672 10.5L21.1006 10.6602L24.0175 13.4609L25.7156 11.8281C26.0934 11.4609 26.0934 10.8711 25.7156 10.5039Z" fill="white"/>
</g>
<defs>
<clipPath id="clip0_7536:39258">
<rect width="26" height="20" fill="white"/>
</clipPath>
</defs>
</svg>
