<svg width="20" height="20" viewBox="0 0 20 20" fill="none" xmlns="http://www.w3.org/2000/svg">
<path d="M1.6044 19.4355C1.45988 19.4352 1.31699 19.4049 1.18482 19.3464C1.05266 19.288 0.934099 19.2026 0.836692 19.0959C0.737524 18.99 0.661851 18.8644 0.614638 18.7272C0.567425 18.5901 0.549737 18.4445 0.562733 18.3L0.817942 15.4938L12.6075 3.70837L16.2919 7.39171L4.50544 19.1761L1.69919 19.4313C1.66768 19.4342 1.63605 19.4356 1.6044 19.4355V19.4355ZM17.0273 6.65525L13.344 2.97191L15.5534 0.762538C15.6501 0.665688 15.765 0.588855 15.8914 0.536434C16.0179 0.484013 16.1534 0.457031 16.2903 0.457031C16.4272 0.457031 16.5628 0.484013 16.6892 0.536434C16.8157 0.588855 16.9306 0.665688 17.0273 0.762538L19.2367 2.97191C19.3335 3.06866 19.4104 3.18354 19.4628 3.31C19.5152 3.43645 19.5422 3.572 19.5422 3.70889C19.5422 3.84578 19.5152 3.98133 19.4628 4.10779C19.4104 4.23425 19.3335 4.34913 19.2367 4.44587L17.0284 6.65421L17.0273 6.65525V6.65525Z" fill="white"/>
</svg>
