<svg width="18" height="15" viewBox="0 0 18 15" fill="none" xmlns="http://www.w3.org/2000/svg">
<path fill-rule="evenodd" clip-rule="evenodd" d="M1.40009 1.67857C1.40009 1.49767 1.53351 1.4 1.63898 1.4H15.8612C15.9667 1.4 16.1001 1.49767 16.1001 1.67857V1.78662L8.75009 6.47881L1.40009 1.78662V1.67857ZM0.100094 2.13194C0.0999854 2.13879 0.0999856 2.14564 0.100094 2.15248V12.8214C0.100094 13.6662 0.762615 14.4 1.63898 14.4H15.8612C16.7376 14.4 17.4001 13.6662 17.4001 12.8214V2.15252C17.4002 2.14565 17.4002 2.13878 17.4001 2.1319V1.67857C17.4001 0.833797 16.7376 0.1 15.8612 0.1H1.63898C0.762615 0.1 0.100094 0.833797 0.100094 1.67857V2.13194ZM16.1001 3.32894V12.8214C16.1001 13.0023 15.9667 13.1 15.8612 13.1H1.63898C1.53351 13.1 1.40009 13.0023 1.40009 12.8214V3.32894L8.40033 7.79784L8.75009 8.02113L9.09985 7.79784L16.1001 3.32894Z" fill="#C53030"/>
</svg>
