<svg width="18" height="15" viewBox="0 0 18 15" fill="none" xmlns="http://www.w3.org/2000/svg">
<path fill-rule="evenodd" clip-rule="evenodd" d="M1.75009 1.92857C1.75009 1.79874 1.84281 1.75 1.88898 1.75H16.1112C16.1574 1.75 16.2501 1.79874 16.2501 1.92857V1.98182L9.00009 6.61017L1.75009 1.98182V1.92857ZM0.250094 2.38026C0.249969 2.38817 0.249969 2.39607 0.250094 2.40397V13.0714C0.250094 13.9673 0.953315 14.75 1.88898 14.75H16.1112C17.0469 14.75 17.7501 13.9673 17.7501 13.0714V2.40396C17.7502 2.39607 17.7502 2.38817 17.7501 2.38027V1.92857C17.7501 1.03273 17.0469 0.25 16.1112 0.25H1.88898C0.953315 0.25 0.250094 1.03273 0.250094 1.92857V2.38026ZM16.2501 3.76142V13.0714C16.2501 13.2013 16.1574 13.25 16.1112 13.25H1.88898C1.84281 13.25 1.75009 13.2013 1.75009 13.0714V3.76142L8.59652 8.13213L9.00009 8.38976L9.40366 8.13213L16.2501 3.76142Z" fill="#063966"/>
</svg>
