<svg width="15" height="15" viewBox="0 0 15 15" fill="none" xmlns="http://www.w3.org/2000/svg">
<path d="M13.4709 2.50048C13.4141 2.49463 13.3569 2.49463 13.3001 2.50048H1.63343C1.55866 2.50164 1.48438 2.51285 1.4126 2.53382L7.43343 8.52965L13.4709 2.50048Z" fill="#67BA99"/>
<path d="M14.0875 3.0791L8.02087 9.12077C7.86473 9.27598 7.65352 9.3631 7.43337 9.3631C7.21321 9.3631 7.002 9.27598 6.84587 9.12077L0.833366 3.12493C0.814882 3.19287 0.805082 3.26287 0.804199 3.33327V11.6666C0.804199 11.8876 0.891997 12.0996 1.04828 12.2559C1.20456 12.4121 1.41652 12.4999 1.63753 12.4999H13.3042C13.5252 12.4999 13.7372 12.4121 13.8935 12.2559C14.0497 12.0996 14.1375 11.8876 14.1375 11.6666V3.33327C14.1342 3.24646 14.1173 3.1607 14.0875 3.0791ZM2.20837 11.6666H1.6292V11.0708L4.65837 8.0666L5.24587 8.6541L2.20837 11.6666ZM13.2959 11.6666H12.7125L9.67503 8.6541L10.2625 8.0666L13.2917 11.0708L13.2959 11.6666Z" fill="#67BA99"/>
</svg>
