<svg width="13" height="13" viewBox="0 0 13 13" fill="none" xmlns="http://www.w3.org/2000/svg">
<g clip-path="url(#clip0_19190_20014)">
<path d="M5.28125 0C4.95802 0 4.64802 0.128404 4.41946 0.356964C4.1909 0.585524 4.0625 0.895517 4.0625 1.21875V2.03125C4.0625 2.35448 4.1909 2.66448 4.41946 2.89304C4.64802 3.1216 4.95802 3.25 5.28125 3.25H7.71875C8.04198 3.25 8.35198 3.1216 8.58054 2.89304C8.8091 2.66448 8.9375 2.35448 8.9375 2.03125V1.21875C8.9375 0.895517 8.8091 0.585524 8.58054 0.356964C8.35198 0.128404 8.04198 0 7.71875 0L5.28125 0ZM7.71875 0.8125C7.82649 0.8125 7.92983 0.855301 8.00601 0.931488C8.0822 1.00767 8.125 1.11101 8.125 1.21875V2.03125C8.125 2.13899 8.0822 2.24233 8.00601 2.31851C7.92983 2.3947 7.82649 2.4375 7.71875 2.4375H5.28125C5.17351 2.4375 5.07017 2.3947 4.99399 2.31851C4.9178 2.24233 4.875 2.13899 4.875 2.03125V1.21875C4.875 1.11101 4.9178 1.00767 4.99399 0.931488C5.07017 0.855301 5.17351 0.8125 5.28125 0.8125H7.71875Z" fill="#041524"/>
<path d="M3.25 1.21875H2.4375C2.00652 1.21875 1.5932 1.38995 1.28845 1.6947C0.983705 1.99945 0.8125 2.41277 0.8125 2.84375V11.375C0.8125 11.806 0.983705 12.2193 1.28845 12.524C1.5932 12.8288 2.00652 13 2.4375 13H10.5625C10.9935 13 11.4068 12.8288 11.7115 12.524C12.0163 12.2193 12.1875 11.806 12.1875 11.375V2.84375C12.1875 2.41277 12.0163 1.99945 11.7115 1.6947C11.4068 1.38995 10.9935 1.21875 10.5625 1.21875H9.75V2.03125C9.75 2.298 9.69746 2.56213 9.59538 2.80858C9.4933 3.05502 9.34368 3.27894 9.15506 3.46756C8.96644 3.65618 8.74252 3.8058 8.49608 3.90788C8.24963 4.00996 7.9855 4.0625 7.71875 4.0625H5.28125C4.74253 4.0625 4.22587 3.84849 3.84494 3.46756C3.46401 3.08663 3.25 2.56997 3.25 2.03125V1.21875ZM8.125 6.5C8.125 6.28451 8.2106 6.07785 8.36298 5.92548C8.51535 5.7731 8.72201 5.6875 8.9375 5.6875C9.15299 5.6875 9.35965 5.7731 9.51202 5.92548C9.6644 6.07785 9.75 6.28451 9.75 6.5V10.5625C9.75 10.778 9.6644 10.9847 9.51202 11.137C9.35965 11.2894 9.15299 11.375 8.9375 11.375C8.72201 11.375 8.51535 11.2894 8.36298 11.137C8.2106 10.9847 8.125 10.778 8.125 10.5625V6.5ZM3.25 9.75C3.25 9.53451 3.3356 9.32785 3.48798 9.17548C3.64035 9.0231 3.84701 8.9375 4.0625 8.9375C4.27799 8.9375 4.48465 9.0231 4.63702 9.17548C4.7894 9.32785 4.875 9.53451 4.875 9.75V10.5625C4.875 10.778 4.7894 10.9847 4.63702 11.137C4.48465 11.2894 4.27799 11.375 4.0625 11.375C3.84701 11.375 3.64035 11.2894 3.48798 11.137C3.3356 10.9847 3.25 10.778 3.25 10.5625V9.75ZM6.5 7.3125C6.71549 7.3125 6.92215 7.3981 7.07452 7.55048C7.2269 7.70285 7.3125 7.90951 7.3125 8.125V10.5625C7.3125 10.778 7.2269 10.9847 7.07452 11.137C6.92215 11.2894 6.71549 11.375 6.5 11.375C6.28451 11.375 6.07785 11.2894 5.92548 11.137C5.7731 10.9847 5.6875 10.778 5.6875 10.5625V8.125C5.6875 7.90951 5.7731 7.70285 5.92548 7.55048C6.07785 7.3981 6.28451 7.3125 6.5 7.3125Z" fill="#041524"/>
</g>
<defs>
<clipPath id="clip0_19190_20014">
<rect width="13" height="13" fill="white"/>
</clipPath>
</defs>
</svg>
