<svg width="16" height="15" viewBox="0 0 16 15" fill="none" xmlns="http://www.w3.org/2000/svg">
<path fill-rule="evenodd" clip-rule="evenodd" d="M10.8955 5.25641C10.4839 5.25641 10.1221 4.9953 10.0091 4.61656L9.99343 4.56424C9.99152 4.55784 9.98953 4.55146 9.98747 4.54511L8.64782 0.41449V0.41449C8.47291 -0.124824 7.68192 -0.142412 7.48102 0.388546V0.388546L5.91552 4.52598C5.90829 4.54508 5.90176 4.56442 5.89593 4.58395L5.88619 4.61656C5.7731 4.9953 5.41135 5.25641 4.99972 5.25641H4.96178V5.25641H0.616494V5.25641C0.0261987 5.25641 -0.225366 5.97469 0.245715 6.31507V6.31507L3.89251 8.95009C3.90691 8.9605 3.92163 8.9705 3.93665 8.98008L3.98279 9.00952C4.31637 9.22233 4.46798 9.61704 4.35783 9.98592L4.33544 10.0609C4.33393 10.066 4.33238 10.071 4.33079 10.076L3.00219 14.2432V14.2432C2.82906 14.7862 3.48576 15.2223 3.95678 14.877V14.877L7.35636 12.3853C7.36639 12.378 7.37626 12.3704 7.38597 12.3627L7.40979 12.3437C7.75169 12.071 8.24832 12.071 8.59022 12.3437L8.61404 12.3627C8.62375 12.3704 8.63362 12.378 8.64365 12.3853L12.0432 14.877V14.877C12.5142 15.2223 13.1709 14.7862 12.9978 14.2432V14.2432L11.6692 10.076C11.6676 10.071 11.6661 10.066 11.6646 10.0609L11.6422 9.98592C11.532 9.61704 11.6836 9.22233 12.0172 9.00952L12.0634 8.98008C12.0784 8.9705 12.0931 8.9605 12.1075 8.95009L15.7543 6.31507V6.31507C16.2254 5.97469 15.9738 5.25641 15.3835 5.25641V5.25641H10.9335V5.25641H10.8955Z" fill="#67BA99" fill-opacity="0.83"/>
</svg>
