<svg width="10" height="14" viewBox="0 0 10 14" fill="none" xmlns="http://www.w3.org/2000/svg">
<path d="M8.04211 6.27111C8.10662 6.20431 8.14232 6.11485 8.14151 6.02199C8.1407 5.92913 8.10346 5.8403 8.03779 5.77463C7.97213 5.70897 7.8833 5.67172 7.79043 5.67091C7.69757 5.6701 7.60811 5.7058 7.54131 5.77032L4.95838 8.35325L3.79211 7.18698C3.72531 7.12247 3.63585 7.08677 3.54298 7.08758C3.45012 7.08839 3.36129 7.12563 3.29563 7.1913C3.22996 7.25696 3.19271 7.34579 3.19191 7.43865C3.1911 7.53152 3.2268 7.62098 3.29131 7.68778L4.95838 9.35484L8.04211 6.27111Z" fill="#05233E"/>
<path fill-rule="evenodd" clip-rule="evenodd" d="M9.91675 3.54167V10.9792C9.91675 11.261 9.80481 11.5312 9.60555 11.7305C9.40629 11.9297 9.13604 12.0417 8.85425 12.0417H2.47925C2.19746 12.0417 1.9272 11.9297 1.72795 11.7305C1.52869 11.5312 1.41675 11.261 1.41675 10.9792V1.0625C1.41675 0.780708 1.52869 0.510457 1.72795 0.311199C1.9272 0.111942 2.19746 0 2.47925 0H6.37508L9.91675 3.54167ZM6.37508 3.89583C6.28115 3.89583 6.19107 3.85852 6.12465 3.7921C6.05823 3.72568 6.02092 3.6356 6.02092 3.54167V0.708333H2.47925C2.38532 0.708333 2.29523 0.745647 2.22881 0.812066C2.1624 0.878486 2.12508 0.968569 2.12508 1.0625V10.9792C2.12508 11.0731 2.1624 11.1632 2.22881 11.2296C2.29523 11.296 2.38532 11.3333 2.47925 11.3333H8.85425C8.94818 11.3333 9.03826 11.296 9.10468 11.2296C9.1711 11.1632 9.20842 11.0731 9.20842 10.9792V3.89583H6.37508ZM6.72925 1.35575L8.561 3.1875H6.72925V1.35575Z" fill="#05233E"/>
<path d="M0.708333 2.125V11.6875C0.708333 11.9693 0.820275 12.2395 1.01953 12.4388C1.21879 12.6381 1.48904 12.75 1.77083 12.75H8.5V13.4583H1.77083C1.30118 13.4583 0.850761 13.2718 0.518665 12.9397C0.186569 12.6076 0 12.1572 0 11.6875V2.125H0.708333Z" fill="#05233E"/>
</svg>
