<svg width="26" height="26" viewBox="0 0 26 26" fill="none" xmlns="http://www.w3.org/2000/svg">
<rect width="26" height="26" rx="13" fill="#1665D8"/>
<path d="M19.6909 7.375H9.67126C9.59577 7.375 9.53401 7.43828 9.53401 7.51562V8.5C9.53401 8.57734 9.59577 8.64062 9.67126 8.64062H19.6909C19.7664 8.64062 19.8281 8.57734 19.8281 8.5V7.51562C19.8281 7.43828 19.7664 7.375 19.6909 7.375ZM19.6909 12.3672H9.67126C9.59577 12.3672 9.53401 12.4305 9.53401 12.5078V13.4922C9.53401 13.5695 9.59577 13.6328 9.67126 13.6328H19.6909C19.7664 13.6328 19.8281 13.5695 19.8281 13.4922V12.5078C19.8281 12.4305 19.7664 12.3672 19.6909 12.3672ZM19.6909 17.3594H9.67126C9.59577 17.3594 9.53401 17.4227 9.53401 17.5V18.4844C9.53401 18.5617 9.59577 18.625 9.67126 18.625H19.6909C19.7664 18.625 19.8281 18.5617 19.8281 18.4844V17.5C19.8281 17.4227 19.7664 17.3594 19.6909 17.3594ZM5.82812 8.00781C5.82812 8.13708 5.85298 8.26509 5.90126 8.38452C5.94954 8.50395 6.02032 8.61246 6.10953 8.70387C6.19875 8.79528 6.30467 8.86779 6.42123 8.91726C6.5378 8.96673 6.66274 8.99219 6.78891 8.99219C6.91508 8.99219 7.04002 8.96673 7.15659 8.91726C7.27315 8.86779 7.37907 8.79528 7.46829 8.70387C7.5575 8.61246 7.62827 8.50395 7.67656 8.38452C7.72484 8.26509 7.74969 8.13708 7.74969 8.00781C7.74969 7.87854 7.72484 7.75054 7.67656 7.63111C7.62827 7.51168 7.5575 7.40316 7.46829 7.31175C7.37907 7.22035 7.27315 7.14784 7.15659 7.09837C7.04002 7.0489 6.91508 7.02344 6.78891 7.02344C6.66274 7.02344 6.5378 7.0489 6.42123 7.09837C6.30467 7.14784 6.19875 7.22035 6.10953 7.31175C6.02032 7.40316 5.94954 7.51168 5.90126 7.63111C5.85298 7.75054 5.82812 7.87854 5.82812 8.00781ZM5.82812 13C5.82812 13.1293 5.85298 13.2573 5.90126 13.3767C5.94954 13.4961 6.02032 13.6047 6.10953 13.6961C6.19875 13.7875 6.30467 13.86 6.42123 13.9094C6.5378 13.9589 6.66274 13.9844 6.78891 13.9844C6.91508 13.9844 7.04002 13.9589 7.15659 13.9094C7.27315 13.86 7.37907 13.7875 7.46829 13.6961C7.5575 13.6047 7.62827 13.4961 7.67656 13.3767C7.72484 13.2573 7.74969 13.1293 7.74969 13C7.74969 12.8707 7.72484 12.7427 7.67656 12.6233C7.62827 12.5039 7.5575 12.3953 7.46829 12.3039C7.37907 12.2125 7.27315 12.14 7.15659 12.0906C7.04002 12.0411 6.91508 12.0156 6.78891 12.0156C6.66274 12.0156 6.5378 12.0411 6.42123 12.0906C6.30467 12.14 6.19875 12.2125 6.10953 12.3039C6.02032 12.3953 5.94954 12.5039 5.90126 12.6233C5.85298 12.7427 5.82812 12.8707 5.82812 13ZM5.82812 17.9922C5.82812 18.1215 5.85298 18.2495 5.90126 18.3689C5.94954 18.4883 6.02032 18.5968 6.10953 18.6882C6.19875 18.7797 6.30467 18.8522 6.42123 18.9016C6.5378 18.9511 6.66274 18.9766 6.78891 18.9766C6.91508 18.9766 7.04002 18.9511 7.15659 18.9016C7.27315 18.8522 7.37907 18.7797 7.46829 18.6882C7.5575 18.5968 7.62827 18.4883 7.67656 18.3689C7.72484 18.2495 7.74969 18.1215 7.74969 17.9922C7.74969 17.8629 7.72484 17.7349 7.67656 17.6155C7.62827 17.4961 7.5575 17.3875 7.46829 17.2961C7.37907 17.2047 7.27315 17.1322 7.15659 17.0827C7.04002 17.0333 6.91508 17.0078 6.78891 17.0078C6.66274 17.0078 6.5378 17.0333 6.42123 17.0827C6.30467 17.1322 6.19875 17.2047 6.10953 17.2961C6.02032 17.3875 5.94954 17.4961 5.90126 17.6155C5.85298 17.7349 5.82812 17.8629 5.82812 17.9922Z" fill="white"/>
</svg>
