<svg width="9" height="9" viewBox="0 0 9 9" fill="none" xmlns="http://www.w3.org/2000/svg">
<circle cx="4.5" cy="4.5" r="4.5" fill="#014077"/>
<path d="M3.4053 2.78125C3.31161 2.78125 3.24915 2.875 3.24915 2.9375V3.71875H2.93687V2.9375C2.93687 2.84375 2.87441 2.78125 2.78072 2.78125C2.68704 2.78125 2.62458 2.875 2.62458 2.9375V3.71875H2.31229V2.9375C2.31229 2.84375 2.24983 2.78125 2.15614 2.78125C2.06246 2.78125 2 2.875 2 2.9375V3.96875C2 4.25 2.2186 4.46875 2.46843 4.5V6.6875C2.46843 6.875 2.59335 7 2.78072 7C2.9681 7 3.09301 6.875 3.09301 6.6875V4.5C3.34284 4.46875 3.56144 4.25 3.56144 3.96875V2.9375C3.56144 2.875 3.49899 2.78125 3.4053 2.78125ZM4.02988 2.9375V4.8125H4.34217V6.6875C4.34217 6.875 4.46708 7 4.65445 7C4.84183 7 4.96674 6.875 4.96674 6.6875V2C4.43585 2 4.02988 2.40625 4.02988 2.9375ZM6.2159 2.625C5.77869 2.625 5.43518 3.09375 5.43518 3.65625C5.40395 4.03125 5.59132 4.375 5.90361 4.59375V6.6875C5.90361 6.875 6.02852 7 6.2159 7C6.40327 7 6.52819 6.875 6.52819 6.6875V4.59375C6.84048 4.375 7.02785 4.03125 6.99662 3.65625C6.99662 3.09375 6.6531 2.625 6.2159 2.625Z" fill="white"/>
</svg>
