<svg width="18" height="18" viewBox="0 0 18 18" fill="none" xmlns="http://www.w3.org/2000/svg">
<path d="M12 6.75C14.0711 6.75 15.75 5.74264 15.75 4.5C15.75 3.25736 14.0711 2.25 12 2.25C9.92893 2.25 8.25 3.25736 8.25 4.5C8.25 5.74264 9.92893 6.75 12 6.75Z" stroke="#05233E" stroke-width="1.33333" stroke-linecap="round" stroke-linejoin="round"/>
<path d="M8.25 4.5V7.5C8.25 8.74275 9.92925 9.75 12 9.75C14.0707 9.75 15.75 8.74275 15.75 7.5V4.5" stroke="#05233E" stroke-width="1.33333" stroke-linecap="round" stroke-linejoin="round"/>
<path d="M8.25 7.5V10.5C8.25 11.7427 9.92925 12.75 12 12.75C14.0707 12.75 15.75 11.7427 15.75 10.5V7.5" stroke="#05233E" stroke-width="1.33333" stroke-linecap="round" stroke-linejoin="round"/>
<path d="M8.25 10.5V13.5C8.25 14.7427 9.92925 15.75 12 15.75C14.0707 15.75 15.75 14.7427 15.75 13.5V10.5" stroke="#05233E" stroke-width="1.33333" stroke-linecap="round" stroke-linejoin="round"/>
<path d="M5.25 6.75H3.375C3.07663 6.75 2.79048 6.86853 2.5795 7.0795C2.36853 7.29048 2.25 7.57663 2.25 7.875C2.25 8.17337 2.36853 8.45952 2.5795 8.6705C2.79048 8.88147 3.07663 9 3.375 9H4.125C4.42337 9 4.70952 9.11853 4.9205 9.3295C5.13147 9.54048 5.25 9.82663 5.25 10.125C5.25 10.4234 5.13147 10.7095 4.9205 10.9205C4.70952 11.1315 4.42337 11.25 4.125 11.25H2.25" stroke="#05233E" stroke-width="1.33333" stroke-linecap="round" stroke-linejoin="round"/>
<path d="M3.75 6V6.75M3.75 11.25V12V11.25Z" stroke="#05233E" stroke-width="1.33333" stroke-linecap="round" stroke-linejoin="round"/>
</svg>
