<svg width="14" height="14" viewBox="0 0 14 14" fill="none" xmlns="http://www.w3.org/2000/svg">
<path d="M0.8125 7L0.26125 6.88975C0.25388 6.92604 0.250112 6.96297 0.25 7H0.8125ZM13.1875 7H13.75C13.7499 6.96297 13.7461 6.92604 13.7387 6.88975L13.1875 7ZM10.0938 7V6.4375C9.97149 6.43743 9.85253 6.4772 9.75489 6.55079C9.65725 6.62437 9.58625 6.72776 9.55262 6.84531L10.0938 7ZM3.90625 7L4.44681 6.84531C4.41322 6.72786 4.3423 6.62453 4.24477 6.55095C4.14724 6.47738 4.02842 6.43755 3.90625 6.4375V7ZM13.1762 4.07725C13.1427 3.93532 13.0554 3.81195 12.9327 3.73315C12.81 3.65436 12.6615 3.6263 12.5185 3.6549C12.3755 3.6835 12.2492 3.76652 12.1662 3.88645C12.0832 4.00638 12.0501 4.15385 12.0738 4.29775L13.1762 4.07725ZM0.25 8.96875C0.25 9.11793 0.309263 9.26101 0.414753 9.3665C0.520242 9.47199 0.663316 9.53125 0.8125 9.53125C0.961684 9.53125 1.10476 9.47199 1.21025 9.3665C1.31574 9.26101 1.375 9.11793 1.375 8.96875H0.25ZM1.92625 4.29775C1.94991 4.15385 1.91676 4.00638 1.83379 3.88645C1.75082 3.76652 1.62452 3.6835 1.48152 3.6549C1.33852 3.6263 1.19 3.65436 1.06728 3.73315C0.944571 3.81195 0.857254 3.93532 0.82375 4.07725L1.92625 4.29775ZM5.59375 2.5C5.44457 2.5 5.30149 2.55926 5.196 2.66475C5.09051 2.77024 5.03125 2.91332 5.03125 3.0625C5.03125 3.21168 5.09051 3.35476 5.196 3.46025C5.30149 3.56574 5.44457 3.625 5.59375 3.625V2.5ZM8.40625 3.625C8.55543 3.625 8.69851 3.56574 8.804 3.46025C8.90949 3.35476 8.96875 3.21168 8.96875 3.0625C8.96875 2.91332 8.90949 2.77024 8.804 2.66475C8.69851 2.55926 8.55543 2.5 8.40625 2.5V3.625ZM5.59375 4.75C5.44457 4.75 5.30149 4.80926 5.196 4.91475C5.09051 5.02024 5.03125 5.16332 5.03125 5.3125C5.03125 5.46168 5.09051 5.60476 5.196 5.71025C5.30149 5.81574 5.44457 5.875 5.59375 5.875V4.75ZM8.40625 5.875C8.55543 5.875 8.69851 5.81574 8.804 5.71025C8.90949 5.60476 8.96875 5.46168 8.96875 5.3125C8.96875 5.16332 8.90949 5.02024 8.804 4.91475C8.69851 4.80926 8.55543 4.75 8.40625 4.75V5.875ZM2.78125 5.3125C2.78125 5.46168 2.84051 5.60476 2.946 5.71025C3.05149 5.81574 3.19457 5.875 3.34375 5.875C3.49293 5.875 3.63601 5.81574 3.7415 5.71025C3.84699 5.60476 3.90625 5.46168 3.90625 5.3125H2.78125ZM3.34375 0.8125V0.25C3.19457 0.25 3.05149 0.309263 2.946 0.414753C2.84051 0.520242 2.78125 0.663316 2.78125 0.8125H3.34375ZM10.6562 0.8125H11.2188C11.2188 0.663316 11.1595 0.520242 11.054 0.414753C10.9485 0.309263 10.8054 0.25 10.6562 0.25V0.8125ZM10.0938 5.3125C10.0938 5.46168 10.153 5.60476 10.2585 5.71025C10.364 5.81574 10.5071 5.875 10.6562 5.875C10.8054 5.875 10.9485 5.81574 11.054 5.71025C11.1595 5.60476 11.2188 5.46168 11.2188 5.3125H10.0938ZM13.1875 7H12.625V11.5H13.75V7.00056L13.1875 7ZM12.625 11.5C12.625 11.7391 12.4996 12.0248 12.2622 12.2622C12.0248 12.4996 11.7391 12.625 11.5 12.625V13.75C12.1047 13.75 12.6627 13.4536 13.0581 13.0581C13.4536 12.6627 13.75 12.1047 13.75 11.5H12.625ZM2.5 12.625C2.26094 12.625 1.97519 12.4996 1.73781 12.2622C1.49987 12.0248 1.375 11.7391 1.375 11.5H0.25C0.25 12.1047 0.547 12.6627 0.941875 13.0581C1.33731 13.4536 1.89531 13.75 2.5 13.75V12.625ZM1.375 11.5V7H0.25V11.5H1.375ZM7 9.53125C8.43269 9.53125 9.35238 8.96594 9.90812 8.36687C10.1804 8.07438 10.3581 7.78131 10.4695 7.55912C10.5321 7.43351 10.5856 7.30362 10.6298 7.17044C10.6312 7.16614 10.6325 7.16182 10.6337 7.1575V7.15581L10.6343 7.15525L10.0938 7C9.91327 6.94929 9.73308 6.89753 9.55319 6.84475V6.84306L9.55375 6.84194V6.84081L9.55262 6.84644C9.52717 6.91797 9.4973 6.98786 9.46319 7.05569C9.39006 7.20306 9.26856 7.40219 9.08406 7.60131C8.72575 7.98719 8.09856 8.40625 7 8.40625V9.53125ZM10.0938 7.5625H13.1875V6.4375H10.0938V7.5625ZM0.8125 7.5625H3.90625V6.4375H0.8125V7.5625ZM3.90625 7C3.72573 7.0506 3.54554 7.10235 3.36569 7.15525V7.1575L3.36737 7.16087C3.37085 7.17333 3.3746 7.18571 3.37863 7.198C3.38594 7.21937 3.3955 7.24862 3.409 7.2835C3.43544 7.35325 3.47481 7.44775 3.5305 7.55912C3.67852 7.85354 3.86753 8.1255 4.09188 8.36687C4.64762 8.96594 5.56731 9.53125 7 9.53125V8.40625C5.90144 8.40625 5.27425 7.98719 4.91594 7.60187C4.76447 7.43879 4.63683 7.25509 4.53681 7.05625C4.50188 6.98645 4.47145 6.91449 4.44569 6.84081V6.84194L4.44625 6.84306V6.84419L4.44681 6.84475L3.90625 7ZM11.5 12.625H2.5V13.75H11.5V12.625ZM12.0738 4.29775L12.6363 7.11025L13.7387 6.88975L13.1762 4.07725L12.0738 4.29775ZM0.25 7V8.96875H1.375V7H0.25ZM0.82375 4.07725L0.26125 6.88975L1.36375 7.11025L1.92625 4.29775L0.82375 4.07725ZM5.59375 3.625H8.40625V2.5H5.59375V3.625ZM5.59375 5.875H8.40625V4.75H5.59375V5.875ZM3.90625 5.3125V0.8125H2.78125V5.3125H3.90625ZM3.34375 1.375H10.6562V0.25H3.34375V1.375ZM10.0938 0.8125V5.3125H11.2188V0.8125H10.0938Z" fill="#041524"/>
</svg>
