<svg width="23" height="23" viewBox="0 0 23 23" fill="none" xmlns="http://www.w3.org/2000/svg">
<path d="M11.375 0C5.09336 0 0 5.09336 0 11.375C0 17.6566 5.09336 22.75 11.375 22.75C17.6566 22.75 22.75 17.6566 22.75 11.375C22.75 5.09336 17.6566 0 11.375 0ZM11.375 20.8203C6.15977 20.8203 1.92969 16.5902 1.92969 11.375C1.92969 6.15977 6.15977 1.92969 11.375 1.92969C16.5902 1.92969 20.8203 6.15977 20.8203 11.375C20.8203 16.5902 16.5902 20.8203 11.375 20.8203Z" fill="#D2321C"/>
<line x1="7.78921" y1="7.375" x2="15.5674" y2="15.1532" stroke="#D2321C" stroke-width="2" stroke-linecap="round"/>
<line x1="7.375" y1="15.1532" x2="15.1532" y2="7.37499" stroke="#D2321C" stroke-width="2" stroke-linecap="round"/>
</svg>
