<svg width="16" height="16" viewBox="0 0 16 16" fill="none" xmlns="http://www.w3.org/2000/svg">
<path d="M15.8627 3.36671C15.9724 3.257 16.0207 3.10012 15.9918 2.94768C15.9629 2.79524 15.8604 2.66696 15.7182 2.60509L14.1382 1.9175L13.5837 0.315482C13.5309 0.16282 13.4032 0.048113 13.2459 0.0119094C13.0885 -0.0242316 12.9236 0.0231019 12.8094 0.13734L11.9156 1.03161C10.7131 0.36591 9.33474 0.00212386 7.99454 0.00212386C5.85911 0.00212386 3.85152 0.834149 2.34153 2.34498C0.831535 3.8558 0 5.86447 0 8.00105C0 10.1376 0.831566 12.1464 2.34156 13.6571C3.85152 15.1679 5.85914 16 7.99457 16C10.13 16 12.1376 15.168 13.6476 13.6571C15.1575 12.1464 15.9891 10.1377 15.9891 8.00105C15.9891 6.67005 15.6582 5.36391 15.0296 4.20039L15.8627 3.36671ZM12.5798 5.32508L11.6111 5.06499L13.8673 2.82241L14.7132 3.19051L12.5798 5.32508ZM12.4033 8.00105C12.4033 10.4334 10.4255 12.4122 7.99454 12.4122C5.56355 12.4122 3.5858 10.4334 3.5858 8.00105C3.5858 5.56872 5.56355 3.58987 7.99454 3.58987C8.72655 3.58987 9.35042 3.73437 9.9477 4.04295L10.1894 5.15607L9.59505 5.74683C9.14307 5.42462 8.59054 5.23494 7.99451 5.23494C6.47008 5.23494 5.2299 6.47581 5.2299 8.00108C5.2299 9.52635 6.47008 10.7672 7.99451 10.7672C9.51894 10.7672 10.7591 9.52635 10.7591 8.00108C10.7591 7.4101 10.5728 6.86185 10.256 6.4119L10.8419 5.82955L11.9946 6.13906C12.2729 6.70926 12.4033 7.30389 12.4033 8.00105ZM9.82174 8.00105C9.82174 9.00912 9.00205 9.82926 7.99454 9.82926C6.98702 9.82926 6.16733 9.00912 6.16733 8.00105C6.16733 6.99297 6.98702 6.17283 7.99454 6.17283C8.33006 6.17283 8.6445 6.26418 8.91503 6.42275L7.64786 7.68228C7.46422 7.8648 7.46325 8.16174 7.64567 8.34548C7.73728 8.43774 7.85771 8.48392 7.9782 8.48392C8.09762 8.48392 8.21711 8.43852 8.3085 8.34767L9.57627 7.08755C9.73207 7.35657 9.82174 7.66843 9.82174 8.00105ZM12.9429 1.33015L13.2233 2.14038L10.9784 4.37181L10.7865 3.48783L12.9429 1.33015ZM15.0517 8.00105C15.0517 9.88713 14.3176 11.6603 12.9847 12.9939C11.6518 14.3276 9.87955 15.0621 7.99454 15.0621C6.10952 15.0621 4.33731 14.3276 3.00439 12.9939C1.67147 11.6603 0.937398 9.88713 0.937398 8.00105C0.937398 6.11496 1.67147 4.3418 3.00439 3.00818C4.33731 1.67452 6.10952 0.94004 7.99454 0.94004C9.09026 0.94004 10.2162 1.21626 11.2223 1.72526L9.94267 3.00564C9.94142 3.00689 9.94033 3.00821 9.93908 3.00946C9.33774 2.76963 8.69646 2.65196 7.99451 2.65196C5.04664 2.65196 2.64837 5.05155 2.64837 8.00105C2.64837 10.9505 5.04664 13.3501 7.99451 13.3501C10.9424 13.3501 13.3406 10.9505 13.3406 8.00105C13.3406 7.34063 13.2426 6.75321 13.0364 6.19318C13.0413 6.18868 13.0464 6.18452 13.0512 6.17977L14.3338 4.89645C14.8049 5.85869 15.0517 6.92054 15.0517 8.00105Z" fill="#05233E"/>
</svg>
