<svg width="16" height="16" viewBox="0 0 16 16" fill="none" xmlns="http://www.w3.org/2000/svg">
<g clip-path="url(#clip0)">
<path d="M15.8627 3.36985C15.9724 3.26021 16.0207 3.10341 15.9918 2.95106C15.9628 2.7987 15.8604 2.67049 15.7182 2.60866L14.1382 1.92145L13.5837 0.320312C13.5309 0.167735 13.4032 0.0530913 13.2459 0.0169077C13.0885 -0.0192133 12.9236 0.028094 12.8094 0.142269L11.9156 1.03605C10.713 0.370713 9.33473 0.00712756 7.99453 0.00712756C5.85911 0.00712756 3.85152 0.838693 2.34153 2.34868C0.831534 3.85868 0 5.86624 0 8.00163C0 10.137 0.831565 12.1446 2.34156 13.6546C3.85152 15.1646 5.85914 15.9962 7.99456 15.9962C10.13 15.9962 12.1376 15.1646 13.6476 13.6546C15.1575 12.1446 15.9891 10.1371 15.9891 8.00163C15.9891 6.67137 15.6582 5.36595 15.0295 4.20307L15.8627 3.36985ZM12.5798 5.32714L11.6111 5.0672L13.8673 2.82585L14.7132 3.19375L12.5798 5.32714ZM12.4033 8.00163C12.4033 10.4326 10.4255 12.4104 7.99453 12.4104C5.56355 12.4104 3.5858 10.4326 3.5858 8.00163C3.5858 5.57064 5.56355 3.59289 7.99453 3.59289C8.72655 3.59289 9.35041 3.73731 9.94769 4.04572L10.1894 5.15822L9.59504 5.74866C9.14306 5.42663 8.59053 5.23706 7.9945 5.23706C6.47007 5.23706 5.2299 6.47723 5.2299 8.00166C5.2299 9.52609 6.47007 10.7663 7.9945 10.7663C9.51893 10.7663 10.7591 9.52609 10.7591 8.00166C10.7591 7.41101 10.5728 6.86307 10.256 6.41336L10.8419 5.83133L11.9946 6.14068C12.2729 6.71055 12.4033 7.30486 12.4033 8.00163ZM9.82174 8.00163C9.82174 9.00914 9.00205 9.82884 7.99453 9.82884C6.98702 9.82884 6.16733 9.00914 6.16733 8.00163C6.16733 6.99411 6.98702 6.17442 7.99453 6.17442C8.33006 6.17442 8.64449 6.26572 8.91502 6.42421L7.64785 7.68304C7.46421 7.86546 7.46325 8.16224 7.64566 8.34587C7.73728 8.43808 7.8577 8.48423 7.97819 8.48423C8.09761 8.48423 8.2171 8.43886 8.3085 8.34806L9.57627 7.08863C9.73206 7.35751 9.82174 7.6692 9.82174 8.00163ZM12.9429 1.33442L13.2233 2.14421L10.9784 4.3744L10.7864 3.4909L12.9429 1.33442ZM15.0517 8.00163C15.0517 9.88667 14.3176 11.6589 12.9847 12.9918C11.6518 14.3247 9.87954 15.0587 7.99453 15.0587C6.10952 15.0587 4.33731 14.3247 3.00439 12.9918C1.67147 11.6589 0.937397 9.88667 0.937397 8.00163C0.937397 6.11659 1.67147 4.3444 3.00439 3.01152C4.33731 1.6786 6.10952 0.944525 7.99453 0.944525C9.09026 0.944525 10.2162 1.22059 11.2223 1.72931L9.94266 3.00899C9.94141 3.01024 9.94032 3.01155 9.93907 3.0128C9.33773 2.77311 8.69646 2.65549 7.9945 2.65549C5.04664 2.65549 2.64837 5.05376 2.64837 8.00163C2.64837 10.9495 5.04664 13.3478 7.9945 13.3478C10.9424 13.3478 13.3406 10.9495 13.3406 8.00163C13.3406 7.34158 13.2426 6.75448 13.0364 6.19476C13.0413 6.19026 13.0464 6.18611 13.0512 6.18136L14.3338 4.89875C14.8048 5.86046 15.0517 6.92172 15.0517 8.00163Z" fill="#05233E"/>
</g>
<defs>
<clipPath id="clip0">
<rect width="16" height="16" fill="white"/>
</clipPath>
</defs>
</svg>
