<svg width="14" height="14" viewBox="0 0 14 14" fill="none" xmlns="http://www.w3.org/2000/svg">
<g clip-path="url(#clip0)">
<path d="M13.8799 2.94925C13.9758 2.85331 14.0181 2.71611 13.9928 2.5828C13.9675 2.44949 13.8779 2.33731 13.7534 2.2832L12.3709 1.68189L11.8858 0.280899C11.8395 0.147394 11.7278 0.0470805 11.5901 0.0154199C11.4525 -0.016186 11.3082 0.0252079 11.2082 0.125111L10.4262 0.907166C9.37392 0.324999 8.16789 0.00686223 6.99522 0.00686223C5.12672 0.00686223 3.37008 0.734482 2.04883 2.05572C0.727592 3.37697 0 5.13358 0 7.00205C0 8.87052 0.72762 10.6272 2.04886 11.9484C3.37008 13.2696 5.12675 13.9973 6.99524 13.9973C8.86374 13.9973 10.6204 13.2696 11.9416 11.9484C13.2628 10.6272 13.9905 8.87055 13.9905 7.00205C13.9905 5.83807 13.7009 4.69583 13.1509 3.67832L13.8799 2.94925ZM11.0073 4.66187L10.1597 4.43443L12.1339 2.47324L12.874 2.79516L11.0073 4.66187ZM10.8529 7.00205C10.8529 9.12916 9.12233 10.8597 6.99522 10.8597C4.8681 10.8597 3.13757 9.12916 3.13757 7.00205C3.13757 4.87494 4.8681 3.14441 6.99522 3.14441C7.63573 3.14441 8.18161 3.27078 8.70423 3.54063L8.91571 4.51407L8.39566 5.0307C8.00018 4.74893 7.51671 4.58305 6.99519 4.58305C5.66131 4.58305 4.57616 5.6682 4.57616 7.00208C4.57616 8.33595 5.66131 9.42111 6.99519 9.42111C8.32906 9.42111 9.41422 8.33595 9.41422 7.00208C9.41422 6.48526 9.25121 6.00581 8.97403 5.61232L9.48667 5.10304L10.4953 5.37372C10.7388 5.87236 10.8529 6.39238 10.8529 7.00205V7.00205ZM8.59402 7.00205C8.59402 7.88363 7.87679 8.60086 6.99522 8.60086C6.11364 8.60086 5.39641 7.88363 5.39641 7.00205C5.39641 6.12048 6.11364 5.40325 6.99522 5.40325C7.2888 5.40325 7.56393 5.48313 7.80065 5.62181L6.69187 6.72328C6.53119 6.8829 6.53034 7.14258 6.68996 7.30326C6.77012 7.38395 6.87549 7.42433 6.98092 7.42433C7.08541 7.42433 7.18996 7.38463 7.26994 7.30518L8.37923 6.20318C8.51555 6.43845 8.59402 6.71117 8.59402 7.00205V7.00205ZM11.325 1.16824L11.5704 1.87681L9.60609 3.82823L9.43814 3.05517L11.325 1.16824ZM13.1702 7.00205C13.1702 8.65146 12.5279 10.2021 11.3616 11.3684C10.1953 12.5347 8.6446 13.177 6.99522 13.177C5.34583 13.177 3.79514 12.5347 2.62884 11.3684C1.46254 10.2021 0.820223 8.65146 0.820223 7.00205C0.820223 5.35264 1.46254 3.80198 2.62884 2.6357C3.79514 1.4694 5.34583 0.827085 6.99522 0.827085C7.95397 0.827085 8.9392 1.06864 9.81954 1.51378L8.69983 2.63349C8.69874 2.63458 8.69778 2.63573 8.69669 2.63682C8.17051 2.42709 7.6094 2.32418 6.99519 2.32418C4.41581 2.32418 2.31732 4.42267 2.31732 7.00205C2.31732 9.58143 4.41581 11.6799 6.99519 11.6799C9.57457 11.6799 11.6731 9.58143 11.6731 7.00205C11.6731 6.4245 11.5873 5.9108 11.4068 5.42104C11.4111 5.41711 11.4156 5.41347 11.4198 5.40931L12.5421 4.28703C12.9542 5.12853 13.1702 6.05713 13.1702 7.00205V7.00205Z" fill="#7AC3A6"/>
</g>
<defs>
<clipPath id="clip0">
<rect width="14" height="14" fill="white"/>
</clipPath>
</defs>
</svg>
