<svg width="16" height="16" viewBox="0 0 16 16" fill="none" xmlns="http://www.w3.org/2000/svg">
<path d="M14.8427 5.76712C15.3436 7.30579 15.3117 8.96835 14.7519 10.4866C14.1922 12.0049 13.1373 13.2903 11.7575 14.1356C10.3777 14.9809 8.75332 15.3368 7.14647 15.1457C5.53962 14.9547 4.04397 14.228 2.90076 13.0828C1.75755 11.9376 1.03345 10.4406 0.845256 8.83344C0.657064 7.22626 1.01575 5.60254 1.86347 4.22419C2.71118 2.84585 3.99849 1.79325 5.51774 1.23618C7.03699 0.679116 8.6996 0.650066 10.2374 1.15372L9.29419 2.09602C9.24199 2.14822 9.19519 2.20402 9.15199 2.26342C7.92087 2.01493 6.64246 2.16925 5.50584 2.70356C4.36921 3.23787 3.43472 4.1238 2.84057 5.23032C2.24642 6.33684 2.02416 7.6052 2.20666 8.84782C2.38915 10.0904 2.96672 11.2413 3.85394 12.1303C4.74115 13.0192 5.89091 13.5991 7.13317 13.784C8.37542 13.9689 9.64422 13.7492 10.7519 13.1572C11.8596 12.5652 12.7473 11.6325 13.2839 10.4969C13.8204 9.36132 13.9773 8.08322 13.7312 6.85162C13.7928 6.80793 13.8506 6.75916 13.904 6.70582L14.8418 5.76802L14.8427 5.76712ZM12.4082 7.10002C12.6014 8.04786 12.4841 9.03273 12.0735 9.90863C11.663 10.7845 10.9812 11.5048 10.1291 11.9627C9.27698 12.4207 8.30002 12.5918 7.34302 12.4508C6.38601 12.3098 5.49991 11.8642 4.81608 11.18C4.13225 10.4959 3.68708 9.60952 3.54659 8.65245C3.4061 7.69537 3.57775 6.7185 4.0361 5.86664C4.49445 5.01479 5.21509 4.33331 6.0912 3.92324C6.96732 3.51316 7.95225 3.39631 8.89999 3.59002V4.98052C8.22833 4.77994 7.50896 4.80912 6.85575 5.06345C6.20255 5.31777 5.65284 5.78271 5.29364 6.38465C4.93444 6.9866 4.78628 7.69115 4.87262 8.38678C4.95896 9.08241 5.27486 9.72937 5.7703 10.2252C6.26575 10.7211 6.91245 11.0376 7.608 11.1245C8.30356 11.2114 9.00824 11.0639 9.61049 10.7052C10.2127 10.3465 10.6781 9.79717 10.933 9.14418C11.1879 8.49119 11.2177 7.77185 11.0177 7.10002H12.4082ZM7.99819 9.35002C8.20523 9.35012 8.40951 9.30261 8.59525 9.21115C8.78099 9.1197 8.94321 8.98674 9.06936 8.82258C9.19551 8.65841 9.28221 8.46743 9.32275 8.2644C9.3633 8.06138 9.3566 7.85174 9.30319 7.65172L10.727 6.22702L10.754 6.20002H12.95C13.0091 6.20012 13.0677 6.18857 13.1224 6.16603C13.177 6.14348 13.2267 6.11038 13.2686 6.06862L15.0686 4.26862C15.1317 4.20568 15.1747 4.12543 15.1921 4.03803C15.2095 3.95063 15.2006 3.86003 15.1665 3.7777C15.1324 3.69537 15.0746 3.62503 15.0004 3.5756C14.9263 3.52616 14.8391 3.49986 14.75 3.50002H12.5V1.25002C12.5 1.16108 12.4736 1.07415 12.4242 1.00019C12.3748 0.926236 12.3046 0.868572 12.2225 0.834483C12.1403 0.800394 12.0499 0.791409 11.9627 0.808661C11.8754 0.825913 11.7953 0.86863 11.7323 0.931417L9.93229 2.73142C9.89037 2.77321 9.8571 2.82286 9.8344 2.87754C9.81169 2.93221 9.8 2.99082 9.79999 3.05002V5.24602C9.79074 5.25477 9.78174 5.26377 9.77299 5.27302L8.34919 6.69502C8.16323 6.64425 7.96856 6.63387 7.77826 6.66457C7.58796 6.69527 7.40643 6.76634 7.24587 6.87301C7.08531 6.97968 6.94943 7.11948 6.84738 7.28301C6.74532 7.44654 6.67944 7.63001 6.65417 7.82111C6.6289 8.01221 6.64482 8.20651 6.70085 8.39095C6.75689 8.57538 6.85175 8.74569 6.97907 8.89043C7.10638 9.03517 7.26319 9.15099 7.43897 9.23011C7.61475 9.30922 7.80543 9.3498 7.99819 9.34912V9.35002Z" fill="#7AC2A6"/>
</svg>
