<svg width="15" height="15" viewBox="0 0 15 15" fill="none" xmlns="http://www.w3.org/2000/svg">
<path d="M14.0463 4.97104C14.5473 6.5097 14.5153 8.17226 13.9555 9.69054C13.3958 11.2088 12.3409 12.4943 10.9611 13.3396C9.58128 14.1848 7.95693 14.5407 6.35009 14.3497C4.74324 14.1586 3.24758 13.4319 2.10437 12.2867C0.961163 11.1415 0.237062 9.64454 0.0488692 8.03736C-0.139323 6.43018 0.219366 4.80646 1.06708 3.42811C1.91479 2.04977 3.2021 0.997167 4.72135 0.440101C6.2406 -0.116965 7.90322 -0.146016 9.441 0.357636L8.4978 1.29994C8.4456 1.35214 8.3988 1.40794 8.3556 1.46734C7.12448 1.21885 5.84608 1.37317 4.70945 1.90748C3.57283 2.44179 2.63834 3.32772 2.04419 4.43424C1.45004 5.54076 1.22777 6.80912 1.41027 8.05173C1.59277 9.29435 2.17033 10.4452 3.05755 11.3342C3.94477 12.2232 5.09452 12.803 6.33678 12.9879C7.57904 13.1729 8.84783 12.9531 9.95552 12.3611C11.0632 11.7691 11.951 10.8364 12.4875 9.70082C13.024 8.56524 13.1809 7.28714 12.9348 6.05554C12.9964 6.01185 13.0542 5.96308 13.1076 5.90974L14.0454 4.97194L14.0463 4.97104ZM11.6118 6.30394C11.805 7.25178 11.6877 8.23665 11.2771 9.11255C10.8666 9.98845 10.1848 10.7087 9.33268 11.1667C8.4806 11.6246 7.50363 11.7957 6.54663 11.6547C5.58962 11.5138 4.70352 11.0681 4.01969 10.384C3.33586 9.69977 2.8907 8.81344 2.7502 7.85636C2.60971 6.89929 2.78136 5.92241 3.23971 5.07056C3.69806 4.21871 4.41871 3.53723 5.29482 3.12715C6.17093 2.71708 7.15586 2.60023 8.1036 2.79394V4.18444C7.43194 3.98386 6.71257 4.01304 6.05937 4.26737C5.40616 4.52169 4.85645 4.98663 4.49725 5.58857C4.13806 6.19051 3.9899 6.89507 4.07623 7.5907C4.16257 8.28633 4.47847 8.93329 4.97392 9.42916C5.46937 9.92503 6.11606 10.2415 6.81162 10.3284C7.50717 10.4153 8.21186 10.2678 8.8141 9.90909C9.41635 9.55041 9.88175 9.00109 10.1366 8.3481C10.3915 7.69511 10.4213 6.97576 10.2213 6.30394H11.6118ZM7.2018 8.55394C7.40884 8.55404 7.61313 8.50653 7.79887 8.41507C7.98461 8.32362 8.14682 8.19066 8.27297 8.0265C8.39912 7.86233 8.48582 7.67135 8.52637 7.46832C8.56691 7.26529 8.56022 7.05566 8.5068 6.85564L9.9306 5.43094L9.9576 5.40394H12.1536C12.2127 5.40404 12.2713 5.39249 12.326 5.36994C12.3806 5.3474 12.4303 5.3143 12.4722 5.27254L14.2722 3.47254C14.3353 3.4096 14.3783 3.32934 14.3957 3.24195C14.4131 3.15455 14.4042 3.06394 14.3701 2.98162C14.336 2.89929 14.2782 2.82895 14.204 2.77952C14.1299 2.73008 14.0427 2.70378 13.9536 2.70394H11.7036V0.453936C11.7036 0.365002 11.6772 0.278068 11.6278 0.204111C11.5784 0.130154 11.5082 0.0724905 11.4261 0.0384016C11.344 0.00431266 11.2536 -0.00467294 11.1663 0.0125794C11.0791 0.0298318 10.9989 0.0725485 10.9359 0.135336L9.1359 1.93534C9.09398 1.97713 9.06071 2.02678 9.03801 2.08145C9.01531 2.13612 9.00362 2.19474 9.0036 2.25394V4.44994C8.99436 4.45869 8.98535 4.46769 8.9766 4.47694L7.5528 5.89894C7.36684 5.84817 7.17218 5.83779 6.98187 5.86849C6.79157 5.89919 6.61004 5.97026 6.44948 6.07693C6.28892 6.1836 6.15305 6.32339 6.05099 6.48692C5.94893 6.65045 5.88306 6.83393 5.85778 7.02503C5.83251 7.21613 5.84843 7.41043 5.90447 7.59486C5.96051 7.7793 6.05537 7.94961 6.18268 8.09435C6.30999 8.23909 6.4668 8.35491 6.64258 8.43402C6.81836 8.51314 7.00904 8.55372 7.2018 8.55303V8.55394Z" fill="#05233E"/>
</svg>
