<svg width="20" height="27" viewBox="0 0 20 27" fill="none" xmlns="http://www.w3.org/2000/svg">
<path d="M2.5 9H13.75V6.5C13.75 5.45833 13.3854 4.57292 12.6563 3.84375C11.9271 3.11458 11.0417 2.75 10 2.75C8.95834 2.75 8.07292 3.11458 7.34375 3.84375C6.61459 4.57292 6.25 5.45833 6.25 6.5H3.75C3.75 4.77083 4.35959 3.29667 5.57875 2.0775C6.79792 0.858334 8.27167 0.249168 10 0.250001C11.7292 0.250001 13.2033 0.859584 14.4225 2.07875C15.6417 3.29792 16.2508 4.77167 16.25 6.5V9H17.5C18.1875 9 18.7763 9.245 19.2663 9.735C19.7563 10.225 20.0008 10.8133 20 11.5V24C20 24.6875 19.755 25.2763 19.265 25.7663C18.775 26.2563 18.1867 26.5008 17.5 26.5H2.5C1.8125 26.5 1.22375 26.255 0.733752 25.765C0.243752 25.275 -0.000831211 24.6867 2.12224e-06 24V11.5C2.12224e-06 10.8125 0.245002 10.2238 0.735002 9.73375C1.225 9.24375 1.81334 8.99917 2.5 9ZM2.5 24H17.5V11.5H2.5V24ZM10 20.25C10.6875 20.25 11.2763 20.005 11.7663 19.515C12.2563 19.025 12.5008 18.4367 12.5 17.75C12.5 17.0625 12.255 16.4738 11.765 15.9838C11.275 15.4938 10.6867 15.2492 10 15.25C9.3125 15.25 8.72375 15.495 8.23375 15.985C7.74375 16.475 7.49917 17.0633 7.5 17.75C7.5 18.4375 7.745 19.0263 8.235 19.5163C8.725 20.0063 9.31334 20.2508 10 20.25Z" fill="#B4AD09"/>
</svg>
