<svg width="14" height="16" viewBox="0 0 14 16" fill="none" xmlns="http://www.w3.org/2000/svg">
<path d="M2.9375 0.6875C3.58397 0.6875 4.20395 0.944307 4.66107 1.40143C5.11819 1.85855 5.375 2.47853 5.375 3.125V12.875C5.375 13.5215 5.11819 14.1415 4.66107 14.5986C4.20395 15.0557 3.58397 15.3125 2.9375 15.3125C2.29103 15.3125 1.67105 15.0557 1.21393 14.5986C0.756807 14.1415 0.5 13.5215 0.5 12.875V3.125C0.5 2.47853 0.756807 1.85855 1.21393 1.40143C1.67105 0.944307 2.29103 0.6875 2.9375 0.6875ZM11.0625 0.6875C11.709 0.6875 12.329 0.944307 12.7861 1.40143C13.2432 1.85855 13.5 2.47853 13.5 3.125V12.875C13.5 13.5215 13.2432 14.1415 12.7861 14.5986C12.329 15.0557 11.709 15.3125 11.0625 15.3125C10.416 15.3125 9.79605 15.0557 9.33893 14.5986C8.88181 14.1415 8.625 13.5215 8.625 12.875V3.125C8.625 2.47853 8.88181 1.85855 9.33893 1.40143C9.79605 0.944307 10.416 0.6875 11.0625 0.6875Z" fill="#6D6D6D"/>
</svg>
