<svg width="11" height="15" viewBox="0 0 11 15" fill="none" xmlns="http://www.w3.org/2000/svg">
<path fill-rule="evenodd" clip-rule="evenodd" d="M10.9165 4.00065V11.4382C10.9165 11.7199 10.8046 11.9902 10.6053 12.1895C10.406 12.3887 10.1358 12.5007 9.854 12.5007H3.479C3.19721 12.5007 2.92696 12.3887 2.7277 12.1895C2.52845 11.9902 2.4165 11.7199 2.4165 11.4382V1.52148C2.4165 1.23969 2.52845 0.969441 2.7277 0.770183C2.92696 0.570926 3.19721 0.458984 3.479 0.458984H7.37484L10.9165 4.00065ZM7.37484 4.35482C7.28091 4.35482 7.19082 4.3175 7.1244 4.25108C7.05798 4.18467 7.02067 4.09458 7.02067 4.00065V1.16732H3.479C3.38507 1.16732 3.29499 1.20463 3.22857 1.27105C3.16215 1.33747 3.12484 1.42755 3.12484 1.52148L3.1663 11.4382C3.1663 11.5321 3.22857 11.6886 3.22857 11.6886C3.29499 11.755 3.38507 11.7923 3.479 11.7923H9.854C9.94794 11.7923 10.038 11.755 10.1044 11.6886C10.1709 11.6222 10.2082 11.5321 10.2082 11.4382V4.35482H7.37484ZM7.729 1.81473L9.56076 3.64648H7.729V1.81473Z" fill="#05233E"/>
<path d="M2 6H5V11.793H1.98438L2 6Z" fill="#F6F9FD"/>
<path d="M2 11H5.5V13H2V11Z" fill="#F6F9FD"/>
<path d="M5.55319 7.08398H3.95744C3.70351 7.08398 3.45998 7.18671 3.28043 7.36956C3.10087 7.5524 3 7.8004 3 8.05898C3 8.31757 3.10087 8.56557 3.28043 8.74841C3.45998 8.93126 3.70351 9.03398 3.95744 9.03398H4.59574C4.84967 9.03398 5.0932 9.13671 5.27276 9.31956C5.45231 9.5024 5.55319 9.7504 5.55319 10.009C5.55319 10.2676 5.45231 10.5156 5.27276 10.6984C5.0932 10.8813 4.84967 10.984 4.59574 10.984H3" stroke="#05233E" stroke-width="0.8" stroke-linecap="round" stroke-linejoin="round"/>
<path d="M4.27637 10.9833V12M4.27637 6V7.08333" stroke="#05233E" stroke-width="0.8" stroke-linecap="round" stroke-linejoin="round"/>
<path d="M0.666667 4V13.2812C0.666667 13.5548 0.772023 13.8171 0.95956 14.0105C1.1471 14.2038 1.40145 14.3125 1.66667 14.3125H8V15H1.66667C1.22464 15 0.800716 14.8189 0.488155 14.4966C0.175595 14.1743 0 13.7371 0 13.2812V4H0.666667Z" fill="#05233E"/>
</svg>
