<svg width="26" height="26" viewBox="0 0 26 26" fill="none" xmlns="http://www.w3.org/2000/svg">
<path d="M13 1.625C6.71836 1.625 1.625 6.71836 1.625 13C1.625 19.2816 6.71836 24.375 13 24.375C19.2816 24.375 24.375 19.2816 24.375 13C24.375 6.71836 19.2816 1.625 13 1.625ZM13 22.4453C7.78477 22.4453 3.55469 18.2152 3.55469 13C3.55469 7.78477 7.78477 3.55469 13 3.55469C18.2152 3.55469 22.4453 7.78477 22.4453 13C22.4453 18.2152 18.2152 22.4453 13 22.4453Z" fill="#B4AD09"/>
<path d="M12.134 8.5C12.5189 7.83333 13.4811 7.83333 13.866 8.5L17.3301 14.5C17.715 15.1667 17.2339 16 16.4641 16H9.5359C8.7661 16 8.28497 15.1667 8.66987 14.5L12.134 8.5Z" fill="#B4AD09"/>
</svg>
