<svg width="18" height="18" viewBox="0 0 18 18" fill="none" xmlns="http://www.w3.org/2000/svg">
<path d="M5.03152 8.37182C4.7808 7.85629 4.6505 7.29052 4.65046 6.71726C4.65046 6.40352 4.69582 6.08114 4.7887 5.73302C4.83028 5.57642 4.88248 5.42666 4.94116 5.2814C4.71598 5.15846 4.46848 5.08286 4.20298 5.08286C3.21838 5.08286 2.42134 6.0104 2.42134 7.15592C2.42134 7.95728 2.81302 8.65082 3.38506 8.99588L0.970363 10.1198C0.819883 10.1905 0.720703 10.3605 0.720703 10.5504V12.4562C0.720703 12.7116 0.899083 12.9186 1.1185 12.9186H2.54572V10.9188C2.54572 10.3362 2.87008 9.80786 3.37354 9.57224L5.2207 8.71202C5.15161 8.60208 5.08846 8.48851 5.03152 8.37182ZM10.8246 6.26492H16.9612V6.26474L16.9623 6.26492C17.1374 6.26492 17.2793 6.1229 17.2793 5.94794V4.79036C17.2793 4.61522 17.1372 4.47338 16.9623 4.47338L16.9612 4.47356V4.47266H10.1039C10.4059 4.86998 10.622 5.32571 10.7386 5.81096C10.7773 5.97098 10.8054 6.12056 10.8246 6.26492ZM17.2793 11.9592C17.2793 11.7841 17.1372 11.6422 16.9623 11.6422L16.9612 11.6424V11.6415H12.9612V13.2775C12.9612 13.3303 12.9584 13.3823 12.9531 13.4336H16.9612V13.4334L16.9623 13.4336C17.1374 13.4336 17.2793 13.2916 17.2793 13.1166V11.9592ZM16.9623 8.0579L16.9612 8.05808V8.05718H10.6099C10.5813 8.1326 10.551 8.20766 10.5174 8.282C10.4529 8.4244 10.3793 8.5625 10.2971 8.69546L12.1489 9.5789C12.2879 9.64745 12.4143 9.7389 12.5229 9.84944H16.9612V9.84926L16.9623 9.84944C17.1374 9.84944 17.2793 9.70742 17.2793 9.53246V8.37488C17.2793 8.19974 17.1372 8.0579 16.9623 8.0579Z" fill="#041524"/>
<path d="M11.7581 10.3861L9.67892 9.39433L8.79962 8.97493C9.18374 8.73301 9.4955 8.35969 9.69962 7.90987C9.86981 7.53497 9.95788 7.12801 9.95792 6.71629C9.95792 6.47365 9.91958 6.24343 9.86576 6.02095C9.60422 4.94401 8.76308 4.15039 7.75328 4.15039C6.76256 4.15039 5.9342 4.91557 5.65664 5.96209C5.59256 6.20203 5.54828 6.45169 5.54828 6.71611C5.54828 7.17547 5.65556 7.60351 5.8379 7.97611C6.04868 8.40811 6.36098 8.76433 6.74114 8.99329L5.8991 9.38533L3.75242 10.3851C3.56576 10.4724 3.44336 10.6828 3.44336 10.9177V13.2766C3.44336 13.5927 3.66368 13.8492 3.93566 13.8492H11.5707C11.8427 13.8492 12.063 13.5928 12.063 13.2766V10.9179C12.0634 10.6837 11.9428 10.4754 11.7581 10.3861Z" fill="#041524"/>
</svg>
