<?xml version="1.0" encoding="UTF-8"?>
<!DOCTYPE svg PUBLIC "-//W3C//DTD SVG 1.1//EN" "http://www.w3.org/Graphics/SVG/1.1/DTD/svg11.dtd">
<!-- Creator: CorelDRAW 2020 (64 Bit) -->
<svg xmlns="http://www.w3.org/2000/svg" xml:space="preserve" width="65.0076mm" height="12.1141mm" version="1.1" style="shape-rendering:geometricPrecision; text-rendering:geometricPrecision; image-rendering:optimizeQuality; fill-rule:evenodd; clip-rule:evenodd"
viewBox="0 0 6862.46 1278.81"
 xmlns:xlink="http://www.w3.org/1999/xlink"
 xmlns:xodm="http://www.corel.com/coreldraw/odm/2003">
 <defs>
  <style type="text/css">
   <![CDATA[
    .fil0 {fill:#164C81;fill-rule:nonzero}
   ]]>
  </style>
 </defs>
 <g id="Camada_x0020_1">
  <metadata id="CorelCorpID_0Corel-Layer"/>
  <path class="fil0" d="M3261.84 400.03c31.04,-29.97 67.19,-53.27 108.45,-69.89 41.21,-16.58 81.9,-22.07 130.93,-24.89 11.17,0 34.23,-0.56 34.23,-0.56l264.75 0 61.5 -152.34 -61.5 -152.33 -306.75 0c0.01,0.05 -0.03,0.1 -0.02,0.16 -95.49,0.83 -183.17,17.05 -262.93,48.84 -81.92,32.67 -152.36,77.91 -211.23,135.73 -58.92,57.85 -104.99,125.59 -138.17,203.22 -33.21,77.66 -49.79,161.46 -49.79,251.42 0,89.96 16.58,173.78 49.79,251.42 33.18,77.65 77.84,140.9 136.66,198.82 66.35,65.29 134.35,109.37 209.88,140.4 56.58,23.25 143.29,48.72 234.88,48.76 14.37,0.01 101.56,-0.04 101.56,-0.04l-61.51 -152.34 59.77 -152.34c0,0 -72.22,-0.53 -115.48,-4.98 -26.37,-3.94 -51.97,-10.52 -76.59,-20.45 -41.25,-16.59 -77.41,-39.88 -108.45,-69.89 -31.08,-29.96 -55.69,-65.3 -73.92,-106.02 -18.19,-40.69 -27.28,-85.15 -27.28,-133.34 0,-48.2 9.09,-92.63 27.28,-133.34 18.23,-40.68 42.84,-76.04 73.92,-106.03z"/>
  <path class="fil0" d="M1644.91 526.19c-18.98,26.48 -49.5,47.77 -88.64,56.72 -0.5,0.11 -0.97,0.25 -1.47,0.36 -18.68,4.13 -39.61,6.3 -63.04,6.3l-104.42 0 0 -335.76 104.42 0c10.5,0 19.98,0.65 32.02,1.28 30.31,1.56 58.56,9.36 82.51,25.31 9.25,6.16 17.87,13.26 25.68,21.29 29.34,30.14 47.64,72.33 47.64,119.14 0,41.15 -13.12,76.37 -34.7,105.35zm103.08 292.36c54.53,-17.64 100.72,-44.57 138.15,-81.18 72.3,-70.69 108.44,-170.3 108.44,-298.81 0,-1.01 0.43,-14.53 -0.01,-36.8 -2.6,-129.99 -36.72,-225.62 -108.42,-295.75 -72.29,-70.68 -176.47,-106.02 -312.47,-106.02l-501.22 0 0 1278.77 314.88 0 0 -486.3 323.4 486.3 359.7 0 -322.43 -460.22z"/>
  <polygon class="fil0" points="2821.08,300.44 2821.08,0.03 2131.91,0.03 2131.91,1278.8 2821.08,1278.8 2821.08,978.04 2446.78,978.04 2446.78,772.76 2691.64,772.76 2691.64,506.07 2446.78,506.07 2446.78,300.44 "/>
  <polygon class="fil0" points="4698.83,0.03 4698.83,300.44 4957.48,300.44 4957.48,1278.8 5272.35,1278.8 5272.35,300.44 5530.99,300.44 5530.99,0.03 "/>
  <path class="fil0" d="M6505.87 772.76c-18.29,40.71 -43.18,76.05 -74.73,106.02 -31.64,30 -68.04,53.29 -109.28,69.89 -41.22,16.61 -84.89,24.89 -130.9,24.89 -46.06,0 -89.72,-8.29 -130.92,-24.89 -41.26,-16.61 -77.41,-39.89 -108.45,-69.89 -31.09,-29.97 -55.7,-65.31 -73.91,-106.02 -18.21,-40.69 -27.3,-85.16 -27.3,-133.34 0,-48.2 9.09,-92.63 27.3,-133.35 18.21,-40.67 42.82,-76.04 73.91,-106.02 31.04,-29.98 67.18,-53.27 108.45,-69.88 41.2,-16.61 84.86,-24.91 130.92,-24.91 46,0 89.68,8.31 130.9,24.91 41.24,16.62 77.64,39.9 109.28,69.88 31.55,29.98 56.43,65.34 74.73,106.02 18.17,40.72 27.29,85.15 27.29,133.35 0,48.18 -9.12,92.64 -27.29,133.34zm306.8 -384.76c-33.25,-77.64 -79.52,-145.38 -138.99,-203.22 -59.41,-57.84 -130.36,-103.06 -212.84,-135.74 -82.49,-32.66 -172.47,-49 -269.89,-49 -98.55,0 -188.77,16.34 -270.71,49 -81.92,32.68 -152.36,77.91 -211.23,135.74 -58.92,57.84 -104.99,125.58 -138.15,203.22 -33.21,77.66 -49.82,161.45 -49.82,251.42 0,89.96 16.61,173.77 49.82,251.41 33.16,77.65 79.24,145.38 138.15,203.23 58.87,57.83 129.32,103.07 211.23,135.73 81.94,32.66 172.15,49 270.71,49 97.41,0 187.4,-16.34 269.89,-49 82.48,-32.66 153.43,-77.91 212.84,-135.73 59.46,-57.85 105.73,-125.58 138.99,-203.23 33.17,-77.64 49.79,-161.45 49.79,-251.41 0,-89.97 -16.63,-173.76 -49.79,-251.42z"/>
  <path class="fil0" d="M633.95 526.23c-18.98,26.48 -49.51,47.78 -88.65,56.72 -0.49,0.12 -0.97,0.25 -1.47,0.36 -18.67,4.13 -39.62,6.31 -63.04,6.31l-104.42 0 0 -335.77 104.42 0c10.5,0 19.98,0.65 32.03,1.28 30.3,1.56 58.56,9.36 82.5,25.31 9.25,6.16 17.87,13.26 25.68,21.29 29.34,30.14 47.64,72.33 47.64,119.13 0,41.17 -13.11,76.38 -34.69,105.36zm349.65 -124.42c-0.57,-127.04 -36.69,-225.62 -108.42,-295.76 -72.29,-70.68 -176.46,-106.02 -312.46,-106.02l-562.72 0 61.5 152.33 0 1126.44 314.87 0 0 -435.37 186.35 0c136,0 240.17,-35.34 312.46,-106.03 72.3,-70.7 108.45,-170.29 108.45,-298.81 0,-1.02 -0.01,-35.78 -0.02,-36.79z"/>
  <path class="fil0" d="M4103.77 795.23l141.37 -403.22 141.36 403.22 -282.73 0zm326.13 -727.63l-23.95 -67.57 -437.71 0 61.5 152.32 -417.43 1126.45 323.1 0 84.81 -244.19 449.84 0 83.84 244.19 336.96 0 -460.96 -1211.2z"/>
 </g>
</svg>
