<svg width="26" height="31" viewBox="0 0 26 31" fill="none" xmlns="http://www.w3.org/2000/svg">
<path d="M8.04694 21.8848L21.2756 1.24335C21.6867 0.601948 22.2099 0.28125 22.8452 0.28125C23.4804 0.28125 24.0036 0.601948 24.4147 1.24335C24.8257 1.88475 25.0313 2.70107 25.0313 3.69233C25.0313 4.68358 24.8257 5.49991 24.4147 6.14131L9.61645 29.2317C9.16802 29.9314 8.64485 30.2812 8.04694 30.2812C7.44904 30.2812 6.92587 29.9314 6.47744 29.2317L0.647841 20.1355C0.23678 19.4941 0.03125 18.6777 0.03125 17.6865C0.03125 16.6952 0.23678 15.8789 0.647841 15.2375C1.0589 14.5961 1.58207 14.2754 2.21735 14.2754C2.85262 14.2754 3.37579 14.5961 3.78686 15.2375L8.04694 21.8848Z" fill="#3CA647"/>
</svg>
