<svg width="40" height="40" viewBox="0 0 40 40" fill="none" xmlns="http://www.w3.org/2000/svg">
<path d="M31.6666 11.6641H4.99992C4.55789 11.6641 4.13397 11.8397 3.82141 12.1522C3.50885 12.4648 3.33325 12.8887 3.33325 13.3307V26.6641C3.33325 27.1061 3.50885 27.53 3.82141 27.8426C4.13397 28.1551 4.55789 28.3307 4.99992 28.3307H31.6666C32.1086 28.3307 32.5325 28.1551 32.8451 27.8426C33.1577 27.53 33.3333 27.1061 33.3333 26.6641V13.3307C33.3333 12.8887 33.1577 12.4648 32.8451 12.1522C32.5325 11.8397 32.1086 11.6641 31.6666 11.6641Z" stroke="#3CA647" stroke-width="2.5" stroke-linecap="round" stroke-linejoin="round"/>
<path d="M35 16.6641H36.6667C37.1087 16.6641 37.5326 16.8397 37.8452 17.1522C38.1577 17.4648 38.3333 17.8887 38.3333 18.3307V21.6641C38.3333 22.1061 38.1577 22.53 37.8452 22.8426C37.5326 23.1551 37.1087 23.3307 36.6667 23.3307H35V16.6641Z" fill="#3CA647"/>
<path d="M10.8333 17.5V22.5M15.8333 17.5V22.5" stroke="#3CA647" stroke-width="2.5" stroke-linecap="round" stroke-linejoin="round"/>
</svg>
