<svg width="14" height="14" viewBox="0 0 14 14" fill="none" xmlns="http://www.w3.org/2000/svg">
<path d="M11.6667 1.16699H4.66667C4.35725 1.16699 4.0605 1.28991 3.84171 1.5087C3.62292 1.72749 3.5 2.02424 3.5 2.33366V9.33366C3.5 9.64308 3.62292 9.93982 3.84171 10.1586C4.0605 10.3774 4.35725 10.5003 4.66667 10.5003H11.6667C11.9761 10.5003 12.2728 10.3774 12.4916 10.1586C12.7104 9.93982 12.8333 9.64308 12.8333 9.33366V2.33366C12.8333 2.02424 12.7104 1.72749 12.4916 1.5087C12.2728 1.28991 11.9761 1.16699 11.6667 1.16699ZM8.16667 2.62533C8.55344 2.62533 8.92437 2.77897 9.19786 3.05246C9.47135 3.32595 9.625 3.69688 9.625 4.08366C9.625 4.47043 9.47135 4.84137 9.19786 5.11486C8.92437 5.38835 8.55344 5.54199 8.16667 5.54199C7.77989 5.54199 7.40896 5.38835 7.13547 5.11486C6.86198 4.84137 6.70833 4.47043 6.70833 4.08366C6.70833 3.69688 6.86198 3.32595 7.13547 3.05246C7.40896 2.77897 7.77989 2.62533 8.16667 2.62533ZM11.0833 8.75033H5.25V8.60449C5.25 7.52591 6.56483 6.41699 8.16667 6.41699C9.7685 6.41699 11.0833 7.52591 11.0833 8.60449V8.75033Z" fill="#05233E"/>
<path d="M2.33341 4.66699H1.16675V11.667C1.16675 12.3104 1.69 12.8337 2.33341 12.8337H9.33341V11.667H2.33341V4.66699Z" fill="#05233E"/>
</svg>
