<svg width="12" height="12" viewBox="0 0 12 12" fill="none" xmlns="http://www.w3.org/2000/svg">
<path d="M11.1429 12H0.857143C0.629884 11.9997 0.411998 11.8943 0.251302 11.7068C0.0906056 11.5193 0.000226919 11.2651 0 11V8.5H0.857143V11H11.1429V8.5H12V11C11.9998 11.2651 11.9094 11.5193 11.7487 11.7068C11.588 11.8943 11.3701 11.9997 11.1429 12Z" fill="#041524"/>
<path d="M2.14282 7.5H9.85711V8.5H2.14282V7.5ZM2.14282 5H9.85711V6H2.14282V5ZM2.14282 2.5H9.85711V3.5H2.14282V2.5ZM2.14282 0H9.85711V1H2.14282V0Z" fill="#041524"/>
</svg>
