<svg width="11" height="11" viewBox="0 0 11 11" fill="none" xmlns="http://www.w3.org/2000/svg">
<g clip-path="url(#clip0)">
<path d="M5.64068 5.50001L0.548643 10.5916C0.455136 10.6848 0.454957 10.8362 0.548218 10.9297C0.593189 10.9748 0.654279 11.0001 0.717948 11L5.02229 11C5.08576 11.0001 5.14667 10.975 5.1916 10.9302L10.4524 5.66932C10.5458 5.57594 10.5458 5.42457 10.4524 5.33118L5.19158 0.0703049C5.14672 0.0253115 5.0858 2.38419e-05 5.02227 9.53674e-07L0.717926 9.53674e-07C0.585858 -0.000245094 0.478608 0.106646 0.478362 0.238712C0.47825 0.302381 0.503538 0.363471 0.548621 0.408442L5.64068 5.50001Z" fill="#67BA99" fill-opacity="0.83"/>
</g>
<defs>
<clipPath id="clip0">
<rect width="11" height="11" fill="white" transform="translate(11 11) rotate(-180)"/>
</clipPath>
</defs>
</svg>
