<svg width="40" height="80" viewBox="0 0 40 80" fill="none" xmlns="http://www.w3.org/2000/svg">
<path d="M9.22634 72.9535C9.49595 73.234 9.79866 73.3623 10.102 73.3247C10.4053 73.2871 10.6978 73.0851 10.948 72.7402L32.6147 42.7402C32.8361 42.4334 33.017 42.0239 33.142 41.5467C33.2669 41.0695 33.3322 40.5389 33.3322 40.0002C33.3322 39.4615 33.2669 38.9308 33.142 38.4537C33.017 37.9765 32.8361 37.5669 32.6147 37.2602L10.948 7.26018C10.698 6.91415 10.4054 6.71153 10.1019 6.67424C9.79837 6.63695 9.49556 6.76643 9.22622 7.04864C8.95688 7.33086 8.73128 7.75506 8.57384 8.27531C8.41639 8.79557 8.33311 9.39205 8.33301 10.0002V70.0002C8.33296 70.6086 8.41618 71.2055 8.57365 71.7261C8.73113 72.2467 8.95684 72.6712 9.22634 72.9535Z" fill="#041524"/>
</svg>
