<svg width="13" height="13" viewBox="0 0 13 13" fill="none" xmlns="http://www.w3.org/2000/svg">
<path d="M6.5 7.8C6.62856 7.8 6.75423 7.76188 6.86112 7.69045C6.96801 7.61903 7.05132 7.51752 7.10052 7.39874C7.14972 7.27997 7.16259 7.14928 7.13751 7.02319C7.11243 6.8971 7.05052 6.78128 6.95962 6.69038C6.86871 6.59948 6.7529 6.53757 6.62681 6.51249C6.50072 6.48741 6.37003 6.50028 6.25126 6.54948C6.13248 6.59867 6.03097 6.68199 5.95954 6.78888C5.88812 6.89577 5.85 7.02144 5.85 7.15C5.85 7.32239 5.91848 7.48772 6.04038 7.60962C6.16228 7.73152 6.32761 7.8 6.5 7.8ZM9.75 7.8C9.87856 7.8 10.0042 7.76188 10.1111 7.69045C10.218 7.61903 10.3013 7.51752 10.3505 7.39874C10.3997 7.27997 10.4126 7.14928 10.3875 7.02319C10.3624 6.8971 10.3005 6.78128 10.2096 6.69038C10.1187 6.59948 10.0029 6.53757 9.87681 6.51249C9.75072 6.48741 9.62003 6.50028 9.50126 6.54948C9.38248 6.59867 9.28097 6.68199 9.20954 6.78888C9.13812 6.89577 9.1 7.02144 9.1 7.15C9.1 7.32239 9.16848 7.48772 9.29038 7.60962C9.41228 7.73152 9.57761 7.8 9.75 7.8ZM6.5 10.4C6.62856 10.4 6.75423 10.3619 6.86112 10.2905C6.96801 10.219 7.05132 10.1175 7.10052 9.99874C7.14972 9.87997 7.16259 9.74928 7.13751 9.62319C7.11243 9.4971 7.05052 9.38128 6.95962 9.29038C6.86871 9.19948 6.7529 9.13757 6.62681 9.11249C6.50072 9.08741 6.37003 9.10028 6.25126 9.14948C6.13248 9.19868 6.03097 9.28199 5.95954 9.38888C5.88812 9.49577 5.85 9.62144 5.85 9.75C5.85 9.92239 5.91848 10.0877 6.04038 10.2096C6.16228 10.3315 6.32761 10.4 6.5 10.4ZM9.75 10.4C9.87856 10.4 10.0042 10.3619 10.1111 10.2905C10.218 10.219 10.3013 10.1175 10.3505 9.99874C10.3997 9.87997 10.4126 9.74928 10.3875 9.62319C10.3624 9.4971 10.3005 9.38128 10.2096 9.29038C10.1187 9.19948 10.0029 9.13757 9.87681 9.11249C9.75072 9.08741 9.62003 9.10028 9.50126 9.14948C9.38248 9.19868 9.28097 9.28199 9.20954 9.38888C9.13812 9.49577 9.1 9.62144 9.1 9.75C9.1 9.92239 9.16848 10.0877 9.29038 10.2096C9.41228 10.3315 9.57761 10.4 9.75 10.4ZM3.25 7.8C3.37856 7.8 3.50423 7.76188 3.61112 7.69045C3.71801 7.61903 3.80132 7.51752 3.85052 7.39874C3.89972 7.27997 3.91259 7.14928 3.88751 7.02319C3.86243 6.8971 3.80052 6.78128 3.70962 6.69038C3.61872 6.59948 3.5029 6.53757 3.37681 6.51249C3.25072 6.48741 3.12003 6.50028 3.00126 6.54948C2.88248 6.59867 2.78097 6.68199 2.70954 6.78888C2.63812 6.89577 2.6 7.02144 2.6 7.15C2.6 7.32239 2.66848 7.48772 2.79038 7.60962C2.91228 7.73152 3.07761 7.8 3.25 7.8ZM11.05 1.3H10.4V0.65C10.4 0.477609 10.3315 0.312279 10.2096 0.190381C10.0877 0.0684819 9.92239 0 9.75 0C9.57761 0 9.41228 0.0684819 9.29038 0.190381C9.16848 0.312279 9.1 0.477609 9.1 0.65V1.3H3.9V0.65C3.9 0.477609 3.83152 0.312279 3.70962 0.190381C3.58772 0.0684819 3.42239 0 3.25 0C3.07761 0 2.91228 0.0684819 2.79038 0.190381C2.66848 0.312279 2.6 0.477609 2.6 0.65V1.3H1.95C1.43283 1.3 0.936838 1.50545 0.571142 1.87114C0.205446 2.23684 0 2.73283 0 3.25V11.05C0 11.5672 0.205446 12.0632 0.571142 12.4289C0.936838 12.7946 1.43283 13 1.95 13H11.05C11.5672 13 12.0632 12.7946 12.4289 12.4289C12.7946 12.0632 13 11.5672 13 11.05V3.25C13 2.73283 12.7946 2.23684 12.4289 1.87114C12.0632 1.50545 11.5672 1.3 11.05 1.3ZM11.7 11.05C11.7 11.2224 11.6315 11.3877 11.5096 11.5096C11.3877 11.6315 11.2224 11.7 11.05 11.7H1.95C1.77761 11.7 1.61228 11.6315 1.49038 11.5096C1.36848 11.3877 1.3 11.2224 1.3 11.05V5.2H11.7V11.05ZM11.7 3.9H1.3V3.25C1.3 3.07761 1.36848 2.91228 1.49038 2.79038C1.61228 2.66848 1.77761 2.6 1.95 2.6H11.05C11.2224 2.6 11.3877 2.66848 11.5096 2.79038C11.6315 2.91228 11.7 3.07761 11.7 3.25V3.9ZM3.25 10.4C3.37856 10.4 3.50423 10.3619 3.61112 10.2905C3.71801 10.219 3.80132 10.1175 3.85052 9.99874C3.89972 9.87997 3.91259 9.74928 3.88751 9.62319C3.86243 9.4971 3.80052 9.38128 3.70962 9.29038C3.61872 9.19948 3.5029 9.13757 3.37681 9.11249C3.25072 9.08741 3.12003 9.10028 3.00126 9.14948C2.88248 9.19868 2.78097 9.28199 2.70954 9.38888C2.63812 9.49577 2.6 9.62144 2.6 9.75C2.6 9.92239 2.66848 10.0877 2.79038 10.2096C2.91228 10.3315 3.07761 10.4 3.25 10.4Z" fill="#05233E"/>
</svg>
