<svg width="40" height="80" viewBox="0 0 40 80" fill="none" xmlns="http://www.w3.org/2000/svg">
<path d="M7.38488 42.7396L29.0515 72.7396C29.3016 73.0856 29.5942 73.2883 29.8977 73.3255C30.2012 73.3628 30.504 73.2334 30.7733 72.9511C31.0427 72.6689 31.2683 72.2447 31.4257 71.7245C31.5832 71.2042 31.6664 70.6077 31.6665 69.9996V9.99961C31.6667 9.39119 31.5837 8.79428 31.4264 8.27354C31.269 7.75281 31.0435 7.32812 30.7741 7.04551C30.5047 6.76289 30.2017 6.63313 29.8981 6.67028C29.5945 6.70744 29.3017 6.91009 29.0515 7.25627L7.38488 37.2563C7.16415 37.5644 6.98388 37.9745 6.8594 38.4519C6.73492 38.9292 6.66992 39.4596 6.66992 39.9979C6.66992 40.5363 6.73492 41.0667 6.8594 41.544C6.98388 42.0213 7.16415 42.4315 7.38488 42.7396Z" fill="#041524"/>
</svg>
