<svg width="9" height="9" viewBox="0 0 9 9" fill="none" xmlns="http://www.w3.org/2000/svg">
<path d="M0.600098 1.50062C0.600098 1.10263 0.758132 0.720943 1.03944 0.439522C1.32074 0.158101 1.70227 0 2.10009 0H7.50007C7.89789 0 8.27942 0.158101 8.56072 0.439522C8.84203 0.720943 9.00006 1.10263 9.00006 1.50062V6.90285C9.00006 7.30084 8.84203 7.68253 8.56072 7.96395C8.27942 8.24537 7.89789 8.40348 7.50007 8.40348H5.94908C5.9043 8.27695 5.83171 8.16208 5.73668 8.06734L4.53668 6.86684C4.79189 6.33287 4.86472 5.72982 4.74397 5.1504C4.62323 4.57099 4.3156 4.04729 3.86837 3.65982C3.42115 3.27235 2.85909 3.04256 2.26861 3.00577C1.67813 2.96899 1.09192 3.12725 0.600098 3.45623V1.50062ZM6.60007 2.10087V6.30261C6.60007 6.3822 6.63168 6.45854 6.68794 6.51483C6.7442 6.57111 6.82051 6.60273 6.90007 6.60273C6.97964 6.60273 7.05594 6.57111 7.1122 6.51483C7.16846 6.45854 7.20007 6.3822 7.20007 6.30261V2.10087C7.20007 2.02127 7.16846 1.94493 7.1122 1.88865C7.05594 1.83236 6.97964 1.80074 6.90007 1.80074C6.82051 1.80074 6.7442 1.83236 6.68794 1.88865C6.63168 1.94493 6.60007 2.02127 6.60007 2.10087Z" fill="#05233E"/>
<path d="M4.19998 5.70243C4.19998 6.17423 4.04399 6.61001 3.78179 6.96055L5.31178 8.49118C5.36643 8.54779 5.39666 8.6236 5.39598 8.70229C5.3953 8.78098 5.36375 8.85626 5.30813 8.9119C5.2525 8.96755 5.17726 8.99911 5.0986 8.9998C5.01994 9.00048 4.94416 8.97023 4.88758 8.91556L3.35759 7.38493C2.97884 7.66827 2.51557 7.81541 2.04281 7.80252C1.57005 7.78964 1.11548 7.61748 0.752704 7.31394C0.389932 7.01039 0.140201 6.59322 0.0439515 6.12999C-0.052298 5.66676 0.01057 5.18459 0.222375 4.76156C0.43418 4.33852 0.782519 3.9994 1.21099 3.79911C1.63945 3.59881 2.12296 3.54907 2.5832 3.65794C3.04345 3.7668 3.45348 4.02791 3.74691 4.39896C4.04034 4.77002 4.19998 5.2293 4.19998 5.70243ZM3.59999 5.70243C3.59999 5.30444 3.44195 4.92275 3.16065 4.64133C2.87935 4.35991 2.49782 4.20181 2.09999 4.20181C1.70217 4.20181 1.32064 4.35991 1.03934 4.64133C0.758035 4.92275 0.6 5.30444 0.6 5.70243C0.6 6.10042 0.758035 6.48211 1.03934 6.76353C1.32064 7.04495 1.70217 7.20305 2.09999 7.20305C2.49782 7.20305 2.87935 7.04495 3.16065 6.76353C3.44195 6.48211 3.59999 6.10042 3.59999 5.70243Z" fill="#05233E"/>
</svg>
