<svg width="12" height="12" viewBox="0 0 12 12" fill="none" xmlns="http://www.w3.org/2000/svg">
<path d="M10.1347 0.382584C10.3421 0.13448 10.618 -0.00268272 10.9043 3.97663e-05C11.1906 0.00276225 11.4649 0.145157 11.6692 0.397177C11.8736 0.649196 11.992 0.991129 11.9996 1.35082C12.0072 1.71052 11.9033 2.05984 11.7098 2.32508L5.83628 11.5565C5.73529 11.6933 5.61339 11.803 5.47788 11.8791C5.34238 11.9553 5.19604 11.9963 5.04763 11.9998C4.89922 12.0032 4.75177 11.969 4.61412 11.8992C4.47646 11.8294 4.35141 11.7255 4.24646 11.5935L0.351393 6.69846C0.242921 6.57144 0.15592 6.41826 0.095577 6.24806C0.0352345 6.07786 0.00278735 5.89413 0.000171818 5.70783C-0.00244371 5.52153 0.024826 5.33648 0.0803535 5.16371C0.135881 4.99094 0.218529 4.834 0.323367 4.70225C0.428205 4.57049 0.553086 4.46663 0.690558 4.39684C0.828031 4.32706 0.97528 4.29279 1.12352 4.29608C1.27176 4.29936 1.41796 4.34014 1.55338 4.41598C1.68881 4.49181 1.8107 4.60115 1.91177 4.73747L4.99426 8.60951L10.1067 0.423284C10.1159 0.409041 10.1258 0.395453 10.1362 0.382584H10.1347Z" fill="#9D9D9D"/>
</svg>
