<svg width="15" height="15" viewBox="0 0 15 15" fill="none" xmlns="http://www.w3.org/2000/svg">
<path fill-rule="evenodd" clip-rule="evenodd" d="M10.2146 5.25641C9.82865 5.25641 9.4895 4.9953 9.38348 4.61656L9.36884 4.56424C9.36705 4.55784 9.36519 4.55146 9.36326 4.54511L8.10733 0.41449C8.10733 0.41449 8.10733 0.41449 8.10733 0.41449C7.94335 -0.124824 7.2018 -0.142412 7.01346 0.388546C7.01346 0.388546 7.01346 0.388546 7.01346 0.388546L5.5458 4.52598C5.53903 4.54508 5.5329 4.56442 5.52743 4.58395L5.5183 4.61656C5.41229 4.9953 5.07314 5.25641 4.68723 5.25641H4.65167H0.577963C0.0245613 5.25641 -0.21128 5.97469 0.230358 6.31507C0.230358 6.31507 0.230358 6.31507 0.230358 6.31507L3.64922 8.95009C3.66273 8.9605 3.67653 8.9705 3.6906 8.98008L3.73387 9.00952C4.04659 9.22233 4.18873 9.61704 4.08547 9.98592L4.06447 10.0609C4.06306 10.066 4.06161 10.071 4.06011 10.076L2.81456 14.2432C2.65224 14.7862 3.2679 15.2222 3.70948 14.877C3.70948 14.877 3.70948 14.877 3.70948 14.877L6.89659 12.3853C6.90599 12.378 6.91524 12.3704 6.92434 12.3627L6.94668 12.3437C7.26721 12.071 7.7328 12.071 8.05333 12.3437L8.07566 12.3627C8.08476 12.3704 8.09401 12.378 8.10342 12.3853L11.2905 14.877C11.7321 15.2223 12.3478 14.7862 12.1854 14.2432L10.9399 10.076C10.9384 10.071 10.9369 10.066 10.9355 10.0609L10.9145 9.98592C10.8113 9.61704 10.9534 9.22233 11.2661 9.00952L11.3094 8.98008C11.3235 8.9705 11.3373 8.9605 11.3508 8.95009L14.7696 6.31507C15.2113 5.97469 14.9754 5.25641 14.422 5.25641H10.2501H10.2146Z" fill="#51A7FC"/>
</svg>
