<svg width="13" height="13" viewBox="0 0 13 13" fill="none" xmlns="http://www.w3.org/2000/svg">
<path d="M12.1721 2.86863L10.8076 1.50414C10.6093 1.30581 10.2878 1.30581 10.0895 1.50414C9.89119 1.70247 9.89116 2.02399 10.0895 2.22229L10.4127 2.54546L9.74991 3.20821C8.88719 2.48848 7.8382 2.054 6.71924 1.95287V1.01562H7.17627C7.45673 1.01562 7.68408 0.788277 7.68408 0.507812C7.68408 0.227348 7.45673 0 7.17627 0H5.24658C4.96612 0 4.73877 0.227348 4.73877 0.507812C4.73877 0.788277 4.96612 1.01562 5.24658 1.01562H5.70361V1.95287C2.91765 2.20464 0.67627 4.54411 0.67627 7.46484C0.67627 10.524 3.15188 13 6.21143 13C9.27054 13 11.7466 10.5244 11.7466 7.46484C11.7466 6.15695 11.2957 4.91852 10.4681 3.92636L11.1308 3.26361L11.454 3.58678C11.6523 3.78508 11.9738 3.78511 12.1721 3.58678C12.3704 3.38848 12.3704 3.06696 12.1721 2.86863ZM6.21143 11.9844C3.71936 11.9844 1.69189 9.95691 1.69189 7.46484C1.69189 4.97278 3.71936 2.94531 6.21143 2.94531C8.70349 2.94531 10.731 4.97278 10.731 7.46484C10.731 9.95691 8.70352 11.9844 6.21143 11.9844ZM8.8501 7.46484C8.8501 7.74531 8.62275 7.97266 8.34228 7.97266H6.21145C5.93099 7.97266 5.70364 7.74531 5.70364 7.46484V4.477C5.70364 4.19654 5.93099 3.96919 6.21145 3.96919C6.49192 3.96919 6.71926 4.19654 6.71926 4.477V6.95703H8.34228C8.62275 6.95703 8.8501 7.18438 8.8501 7.46484Z" fill="#041524"/>
</svg>
