<svg width="12" height="12" viewBox="0 0 12 12" fill="none" xmlns="http://www.w3.org/2000/svg">
<path d="M7 9.5C8.8855 9.5 9.8285 9.5 10.414 8.914C11 8.3285 11 7.3855 11 5.5C11 3.6145 11 2.6715 10.414 2.086C9.8285 1.5 8.8855 1.5 7 1.5H5C3.1145 1.5 2.1715 1.5 1.586 2.086C1 2.6715 1 3.6145 1 5.5C1 7.3855 1 8.3285 1.586 8.914C1.9125 9.241 2.35 9.3855 3 9.449" stroke="#05233E" stroke-width="1.5" stroke-linecap="round" stroke-linejoin="round"/>
<path d="M7.00012 9.5C6.38212 9.5 5.70112 9.75 5.07962 10.0725C4.08062 10.591 3.58112 10.8505 3.33512 10.685C3.08912 10.52 3.13562 10.0075 3.22912 8.983L3.25012 8.75" stroke="#05233E" stroke-width="1.33333" stroke-linecap="round"/>
</svg>
