<svg width="14" height="12" viewBox="0 0 14 12" fill="none" xmlns="http://www.w3.org/2000/svg">
<path d="M11.2 3.375C11.2 4.41053 10.4165 5.25 9.45 5.25C8.4835 5.25 7.7 4.41053 7.7 3.375C7.7 2.33947 8.4835 1.5 9.45 1.5C10.4165 1.5 11.2 2.33947 11.2 3.375Z" fill="#67BA99"/>
<path d="M4.9 6.75H1.4C0.626801 6.75 0 7.42157 0 8.25V12H9.1V11.25C9.1 8.76472 7.2196 6.75 4.9 6.75Z" fill="#67BA99"/>
<path d="M14 10.5C14 8.42893 12.433 6.75 10.5 6.75H7C9.1 6.75 11.2 8.59188 11.2 11.4594V12H14V10.5Z" fill="#67BA99"/>
<path d="M6.3 2.625C6.3 4.07475 5.2031 5.25 3.85 5.25C2.4969 5.25 1.4 4.07475 1.4 2.625C1.4 1.17525 2.4969 0 3.85 0C5.2031 0 6.3 1.17525 6.3 2.625Z" fill="#67BA99"/>
</svg>
