<svg width="9" height="10" viewBox="0 0 9 10" fill="none" xmlns="http://www.w3.org/2000/svg">
<rect y="0.5" width="9" height="9" rx="4.5" fill="#3D3D3D"/>
<path d="M6.76692 3.29005L6.12069 2.64442C6.0751 2.59863 6.02092 2.5623 5.96125 2.53752C5.90159 2.51273 5.83761 2.49998 5.773 2.5C5.64133 2.5 5.51754 2.55158 5.42471 2.64442L4.72933 3.33981C4.68354 3.38539 4.64721 3.43958 4.62243 3.49924C4.59765 3.55891 4.5849 3.62289 4.58491 3.6875C4.58491 3.81917 4.63649 3.94296 4.72933 4.0358L5.23782 4.5443C5.11879 4.80665 4.95331 5.04532 4.74935 5.24879C4.54591 5.45324 4.30726 5.61933 4.04487 5.73908L3.53639 5.23058C3.4908 5.1848 3.43662 5.14847 3.37695 5.12368C3.31728 5.0989 3.25331 5.08615 3.1887 5.08616C3.05702 5.08616 2.93324 5.13774 2.8404 5.23058L2.14442 5.92536C2.09857 5.97103 2.06221 6.02532 2.03743 6.08509C2.01265 6.14487 1.99992 6.20896 2 6.27367C2 6.40534 2.05158 6.52913 2.14442 6.62197L2.78943 7.26699C2.93749 7.41566 3.14197 7.5 3.35192 7.5C3.39622 7.5 3.43869 7.49636 3.48056 7.48908C4.29851 7.35437 5.10978 6.9193 5.76451 6.26517C6.41862 5.61165 6.85308 4.80097 6.98961 3.98058C7.03087 3.72998 6.94774 3.47209 6.76692 3.29005Z" fill="white"/>
</svg>
