<svg width="15" height="15" viewBox="0 0 15 15" fill="none" xmlns="http://www.w3.org/2000/svg">
<path d="M12.5 1.25H5C4.66848 1.25 4.35054 1.3817 4.11612 1.61612C3.8817 1.85054 3.75 2.16848 3.75 2.5V10C3.75 10.3315 3.8817 10.6495 4.11612 10.8839C4.35054 11.1183 4.66848 11.25 5 11.25H12.5C12.8315 11.25 13.1495 11.1183 13.3839 10.8839C13.6183 10.6495 13.75 10.3315 13.75 10V2.5C13.75 2.16848 13.6183 1.85054 13.3839 1.61612C13.1495 1.3817 12.8315 1.25 12.5 1.25ZM8.75 2.8125C9.1644 2.8125 9.56183 2.97712 9.85485 3.27015C10.1479 3.56317 10.3125 3.9606 10.3125 4.375C10.3125 4.7894 10.1479 5.18683 9.85485 5.47985C9.56183 5.77288 9.1644 5.9375 8.75 5.9375C8.3356 5.9375 7.93817 5.77288 7.64515 5.47985C7.35212 5.18683 7.1875 4.7894 7.1875 4.375C7.1875 3.9606 7.35212 3.56317 7.64515 3.27015C7.93817 2.97712 8.3356 2.8125 8.75 2.8125ZM11.875 9.375H5.625V9.21875C5.625 8.06313 7.03375 6.875 8.75 6.875C10.4662 6.875 11.875 8.06313 11.875 9.21875V9.375Z" fill="#51A7FC"/>
<path d="M2.5 5H1.25V12.5C1.25 13.1894 1.81062 13.75 2.5 13.75H10V12.5H2.5V5Z" fill="#51A7FC"/>
</svg>
