<svg width="13" height="10" viewBox="0 0 13 10" fill="none" xmlns="http://www.w3.org/2000/svg">
<path d="M12.7342 0H11.1708C10.8308 0 10.5074 0.154098 10.3074 0.418266L5.06725 7.27406L2.69384 4.16694C2.49384 3.90592 2.17383 3.74867 1.83048 3.74867H0.267097C0.0504238 3.74867 -0.0762469 3.98139 0.0504238 4.14807L4.20389 9.58239C4.30201 9.71159 4.43136 9.81686 4.58121 9.88949C4.73107 9.96212 4.89711 10 5.06559 10C5.23406 10 5.4001 9.96212 5.54996 9.88949C5.69981 9.81686 5.82916 9.71159 5.92728 9.58239L12.9475 0.399397C13.0775 0.23272 12.9508 0 12.7342 0Z" fill="#05233E"/>
</svg>
