<svg width="18" height="12" viewBox="0 0 18 12" fill="none" xmlns="http://www.w3.org/2000/svg">
<path d="M10.1755 0.430584C10.3837 0.183505 10.6607 0.0469095 10.9482 0.0496208C11.2356 0.052332 11.511 0.194138 11.7162 0.445117C11.9214 0.696095 12.0403 1.03661 12.0479 1.39482C12.0555 1.75303 11.9511 2.10091 11.7569 2.36505L5.85976 11.5584C5.75836 11.6945 5.63597 11.8038 5.49992 11.8796C5.36387 11.9555 5.21694 11.9963 5.06793 11.9998C4.91892 12.0032 4.77089 11.9691 4.63268 11.8996C4.49447 11.8301 4.36892 11.7266 4.26354 11.5952L0.352806 6.72037C0.243898 6.59387 0.156546 6.44132 0.0959611 6.27183C0.0353759 6.10233 0.00279856 5.91936 0.000172512 5.73383C-0.00245354 5.5483 0.0249255 5.36401 0.0806764 5.19196C0.136427 5.01991 0.219408 4.86361 0.324668 4.7324C0.429928 4.60119 0.55531 4.49775 0.693336 4.42826C0.831362 4.35876 0.979203 4.32463 1.12804 4.32791C1.27688 4.33118 1.42366 4.37179 1.55963 4.44731C1.69561 4.52283 1.81798 4.63172 1.91946 4.76748L5.01436 8.62352L10.1459 0.471117C10.1551 0.456893 10.165 0.443358 10.1755 0.430584ZM8.81572 9.90026L10.1755 11.5952C10.2808 11.7263 10.4063 11.8296 10.5443 11.8989C10.6824 11.9683 10.8303 12.0022 10.9791 11.9988C11.1279 11.9954 11.2747 11.9546 11.4106 11.8789C11.5465 11.8033 11.6688 11.6942 11.7702 11.5584L17.6703 2.36505C17.7763 2.23462 17.8601 2.07889 17.9167 1.90718C17.9734 1.73547 18.0017 1.5513 17.9999 1.36565C17.9982 1.18001 17.9665 0.996704 17.9066 0.826687C17.8468 0.656669 17.7601 0.503425 17.6517 0.376105C17.5433 0.248785 17.4154 0.150001 17.2757 0.0856525C17.136 0.0213036 16.9873 -0.00729087 16.8386 0.0015773C16.6898 0.0104455 16.544 0.0565948 16.4098 0.137268C16.2757 0.217941 16.156 0.331484 16.0578 0.471117L10.9248 8.62352L10.208 7.72813L8.81424 9.90026H8.81572Z" fill="#158AF0"/>
</svg>
