<svg width="18" height="18" viewBox="0 0 18 18" fill="none" xmlns="http://www.w3.org/2000/svg">
<path fill-rule="evenodd" clip-rule="evenodd" d="M3.5175 4.8936L1.5075 2.8836L2.565 1.8186L15.8625 15.1236L14.805 16.1811L12.24 13.6161C11.235 14.0136 10.14 14.2311 9 14.2311C5.25 14.2311 2.0475 11.8986 0.75 8.6061C1.3275 7.1286 2.295 5.8536 3.5175 4.8936ZM9.00009 4.48109C11.8426 4.48109 14.3776 6.07859 15.6151 8.60609C15.1726 9.52109 14.5501 10.3086 13.8076 10.9461L14.8651 12.0036C15.9076 11.0811 16.7326 9.92609 17.2501 8.60609C15.9526 5.31359 12.7501 2.98109 9.00009 2.98109C8.04759 2.98109 7.13259 3.13109 6.27009 3.40859L7.50759 4.64609C7.99509 4.54859 8.49009 4.48109 9.00009 4.48109ZM8.19742 5.33609L9.74992 6.88859C10.1774 7.07609 10.5224 7.42109 10.7099 7.84859L12.2624 9.40109C12.3224 9.14609 12.3674 8.87609 12.3674 8.59859C12.3749 6.73859 10.8599 5.23109 8.99992 5.23109C8.72242 5.23109 8.45992 5.26859 8.19742 5.33609ZM7.13255 8.50859L9.09004 10.4661L9.09003 10.4661C9.06004 10.4736 9.03004 10.4811 9.00004 10.4811C7.96505 10.4811 7.12505 9.6411 7.12505 8.60609C7.12505 8.58735 7.12692 8.57234 7.1288 8.55734L7.1288 8.55734C7.13067 8.54234 7.13255 8.52734 7.13255 8.50859ZM5.89488 7.27109L4.58238 5.95859C3.67488 6.64859 2.90987 7.53359 2.38487 8.60609C3.62238 11.1336 6.15737 12.7311 8.99988 12.7311C9.71238 12.7311 10.4024 12.6261 11.0624 12.4461L10.3274 11.7111C9.92238 11.8836 9.47237 11.9811 8.99988 11.9811C7.13987 11.9811 5.62488 10.4661 5.62488 8.60609C5.62488 8.13359 5.72237 7.68359 5.89488 7.27109Z" fill="#063966" fill-opacity="0.62"/>
</svg>
