<svg width="12" height="13" viewBox="0 0 12 13" fill="none" xmlns="http://www.w3.org/2000/svg">
<path d="M11.1401 3.25H8.125V0.234863L11.1401 3.25ZM6.09375 6.55078C6.25456 6.55078 6.40479 6.5804 6.54443 6.63965C6.68408 6.69889 6.80892 6.78353 6.91895 6.89355C7.02897 7.00358 7.11149 7.12842 7.1665 7.26807C7.22152 7.40771 7.25326 7.55794 7.26172 7.71875C7.26172 7.87956 7.2321 8.02979 7.17285 8.16943C7.11361 8.30908 7.02897 8.43392 6.91895 8.54395C6.80892 8.65397 6.68408 8.73649 6.54443 8.7915C6.40479 8.84652 6.25456 8.87825 6.09375 8.88672C5.93294 8.88672 5.78271 8.8571 5.64307 8.79785C5.50342 8.73861 5.37858 8.65397 5.26855 8.54395C5.15853 8.43392 5.07601 8.30908 5.021 8.16943C4.96598 8.02979 4.93424 7.87956 4.92578 7.71875C4.92578 7.55794 4.9554 7.40771 5.01465 7.26807C5.07389 7.12842 5.15853 7.00358 5.26855 6.89355C5.37858 6.78353 5.50342 6.70101 5.64307 6.646C5.78271 6.59098 5.93294 6.55924 6.09375 6.55078ZM11.375 4.0625V13H0.8125V0H7.3125V4.0625H11.375ZM8.14404 8.07422C8.15251 8.01497 8.15885 7.95573 8.16309 7.89648C8.16732 7.83724 8.16943 7.77799 8.16943 7.71875C8.16943 7.65951 8.16732 7.60026 8.16309 7.54102C8.15885 7.48177 8.15251 7.42253 8.14404 7.36328L9.31836 6.88086L8.96924 6.03027L7.79492 6.51904C7.65527 6.32438 7.48812 6.15723 7.29346 6.01758L7.78223 4.84326L6.93164 4.49414L6.44922 5.66846C6.38997 5.65999 6.33073 5.65365 6.27148 5.64941C6.21224 5.64518 6.15299 5.64307 6.09375 5.64307C6.03451 5.64307 5.97526 5.64518 5.91602 5.64941C5.85677 5.65365 5.79753 5.65999 5.73828 5.66846L5.25586 4.49414L4.40527 4.84326L4.89404 6.01758C4.69938 6.15723 4.53223 6.32438 4.39258 6.51904L3.21826 6.03027L2.86914 6.88086L4.04346 7.36328C4.03499 7.42253 4.02865 7.48177 4.02441 7.54102C4.02018 7.60026 4.01595 7.65951 4.01172 7.71875C4.01172 7.77799 4.01383 7.83724 4.01807 7.89648C4.0223 7.95573 4.03076 8.01497 4.04346 8.07422L2.86914 8.55664L3.21826 9.40723L4.39258 8.91846C4.53223 9.11312 4.69938 9.28027 4.89404 9.41992L4.40527 10.5942L5.25586 10.9434L5.73828 9.76904C5.79753 9.77751 5.85677 9.78385 5.91602 9.78809C5.97526 9.79232 6.03451 9.79655 6.09375 9.80078C6.15299 9.80078 6.21224 9.79867 6.27148 9.79443C6.33073 9.7902 6.38997 9.78174 6.44922 9.76904L6.93164 10.9434L7.78223 10.5942L7.29346 9.41992C7.48812 9.28027 7.65527 9.11312 7.79492 8.91846L8.96924 9.40723L9.31836 8.55664L8.14404 8.07422Z" fill="#041524"/>
</svg>
